<svg xmlns="http://www.w3.org/2000/svg" viewBox="0 0 386 386">
    <path d="M384.468 194.56C385.002 194.034 385.278 193.572 385.278 193.111C385.278 192.649 385.01 192.183 384.468 191.661C353.252 161.097 356.058 166.778 358.597 162.239C360.751 158.388 363.861 152.78 366.566 148.471C367.133 147.56 367.445 147.058 367.445 146.596C367.445 146.521 367.437 146.447 367.42 146.374C367.399 146.3 367.367 146.229 367.327 146.163C367.1 145.758 366.578 145.487 365.63 144.981C361.144 142.579 355.629 139.287 351.839 137.028C347.384 134.367 347.789 140.692 359.532 98.612C359.735 97.8912 359.735 97.3567 359.504 96.9558C359.273 96.5549 358.811 96.2877 358.083 96.1014C315.767 85.2371 321.04 88.756 320.971 83.5486C320.91 79.1348 320.817 72.7126 320.971 67.6267C321.007 66.5537 321.023 65.9625 320.793 65.5656C320.722 65.4304 320.612 65.3201 320.477 65.2498C320.072 65.019 319.489 65.0352 318.416 65.0716C313.33 65.2336 306.907 65.1404 302.494 65.0716C297.294 65.0028 300.813 70.275 289.941 27.9557C289.755 27.2309 289.487 26.7693 289.087 26.5385C288.686 26.3076 288.151 26.3076 287.43 26.5101C245.35 38.2531 251.675 38.658 249.015 34.2038C246.755 30.4136 243.463 24.8904 241.062 20.4119C240.556 19.4643 240.276 18.942 239.879 18.7152C239.814 18.6751 239.743 18.6437 239.669 18.6221C239.596 18.6056 239.521 18.5974 239.446 18.5978C238.984 18.5978 238.482 18.9096 237.571 19.4765C233.247 22.1612 227.638 25.2913 223.804 27.4455C219.264 29.9844 224.946 32.7906 194.381 1.57451C193.859 1.04 193.393 0.764648 192.932 0.764648C192.47 0.764648 192.004 1.0319 191.482 1.57451C160.918 32.7906 166.599 29.9844 162.06 27.4455C158.209 25.2913 152.601 22.1612 148.292 19.4765C147.381 18.9096 146.879 18.5978 146.417 18.5978C146.343 18.5974 146.268 18.6056 146.195 18.6221C146.121 18.6437 146.05 18.6751 145.984 18.7152C145.579 18.942 145.308 19.4643 144.802 20.4119C142.401 24.8985 139.108 30.4136 136.849 34.2038C134.189 38.658 140.514 38.2531 98.4332 26.5101C97.7125 26.3076 97.178 26.3076 96.7771 26.5385C96.3762 26.7693 96.109 27.2309 95.9227 27.9557C85.0584 70.275 88.5773 65.0028 83.3699 65.0716C78.9561 65.1324 72.5339 65.2255 67.448 65.0716C66.3749 65.0352 65.7837 65.019 65.3869 65.2498C65.2516 65.3201 65.1413 65.4304 65.0711 65.5656C64.8402 65.9706 64.8564 66.5537 64.8929 67.6267C65.0549 72.7126 64.9617 79.1348 64.8929 83.5486C64.8241 88.7479 70.0962 85.229 27.781 96.1014C27.0522 96.2877 26.5905 96.5549 26.3597 96.9558C26.1289 97.3567 26.1289 97.8912 26.3314 98.612C38.0744 140.692 38.4793 134.367 34.0251 137.028C30.2349 139.287 24.7117 142.579 20.2331 144.981C19.2856 145.487 18.7632 145.766 18.5365 146.163C18.4963 146.229 18.465 146.3 18.4434 146.374C18.4268 146.447 18.4187 146.521 18.4191 146.596C18.4191 147.058 18.7309 147.56 19.2978 148.471C21.9824 152.796 25.1126 158.404 27.2668 162.239C29.8057 166.778 32.6119 161.097 1.3958 191.661C0.86129 192.183 0.585938 192.649 0.585938 193.111C0.585938 193.572 0.853191 194.034 1.3958 194.56C32.6119 225.124 29.8057 219.443 27.2668 223.982C25.1126 227.833 21.9824 233.442 19.2978 237.75C18.7309 238.661 18.4191 239.163 18.4191 239.625C18.4187 239.7 18.4268 239.775 18.4434 239.848C18.465 239.922 18.4963 239.992 18.5365 240.058C18.7632 240.463 19.2856 240.734 20.2331 241.241C24.7198 243.642 30.2349 246.934 34.0251 249.193C38.4793 251.854 38.0744 245.549 26.3314 287.609C26.1289 288.33 26.1289 288.864 26.3597 289.265C26.5905 289.666 27.0522 289.933 27.781 290.12C70.0962 300.984 64.8241 297.465 64.8929 302.673C64.9536 307.086 65.0468 313.508 64.8929 318.594C64.8564 319.667 64.8402 320.259 65.0711 320.655C65.1413 320.791 65.2516 320.901 65.3869 320.971C65.7918 321.202 66.3749 321.186 67.448 321.149C72.5339 320.988 78.9561 321.081 83.3699 321.149C88.5692 321.218 85.0503 315.946 95.9227 358.261C96.109 358.99 96.3762 359.452 96.7771 359.683C97.178 359.913 97.7125 359.913 98.4332 359.711C140.514 347.968 134.189 347.563 136.849 352.017C139.108 355.807 142.401 361.331 144.802 365.809C145.308 366.757 145.587 367.279 145.984 367.506C146.05 367.546 146.121 367.577 146.195 367.599C146.268 367.616 146.343 367.624 146.417 367.623C146.879 367.623 147.381 367.312 148.292 366.745C152.617 364.06 158.225 360.93 162.06 358.776C166.599 356.237 160.918 353.431 191.482 384.647C192.004 385.181 192.47 385.456 192.932 385.456C193.393 385.456 193.859 385.189 194.381 384.647C224.946 353.431 219.264 356.237 223.804 358.776C227.655 360.93 233.263 364.04 237.571 366.745C238.482 367.312 238.984 367.623 239.446 367.623C239.521 367.624 239.596 367.616 239.669 367.599C239.743 367.577 239.814 367.546 239.879 367.506C240.284 367.279 240.556 366.757 241.062 365.809C243.463 361.323 246.755 355.807 249.015 352.017C251.675 347.563 245.37 347.968 287.43 359.711C288.151 359.913 288.686 359.913 289.087 359.683C289.487 359.452 289.755 358.99 289.941 358.261C300.805 315.946 297.286 321.218 302.494 321.149C306.907 321.089 313.33 320.996 318.416 321.149C319.489 321.186 320.08 321.202 320.477 320.971C320.612 320.901 320.722 320.791 320.793 320.655C321.023 320.251 321.007 319.667 320.971 318.594C320.809 313.508 320.902 307.086 320.971 302.673C321.04 297.473 315.767 300.992 358.083 290.12C358.811 289.933 359.273 289.666 359.504 289.265C359.735 288.864 359.735 288.33 359.532 287.609C347.789 245.529 347.384 251.854 351.839 249.193C355.629 246.934 361.152 243.642 365.63 241.241C366.578 240.734 367.1 240.455 367.327 240.058C367.367 239.992 367.399 239.922 367.42 239.848C367.437 239.775 367.445 239.7 367.445 239.625C367.445 239.163 367.133 238.661 366.566 237.75C363.881 233.425 360.751 227.817 358.597 223.982C356.066 219.431 353.26 225.124 384.468 194.56ZM381.471 191.896H374.025C372.934 191.894 371.882 191.489 371.073 190.758C350.616 172.269 351.563 174.771 355.815 167.033C361.03 171.775 377.45 187.344 381.471 191.896ZM344.926 193.111C338.832 197.46 342.116 197.524 332.778 193.111C342.116 188.697 338.832 188.762 344.926 193.111ZM341.95 188.251C346.866 182.785 344.129 181.019 356.301 191.896H346.987C346.673 191.897 346.369 191.78 346.137 191.568C345.287 190.802 343.898 189.798 341.95 188.251ZM346.129 194.641C346.361 194.429 346.665 194.312 346.979 194.313H356.293C344.121 205.182 346.858 203.416 341.942 197.958C343.898 196.423 345.287 195.419 346.145 194.653L346.129 194.641ZM357.872 195.617C358.897 194.77 360.186 194.307 361.516 194.309H369.008C368.936 194.405 368.856 194.494 368.769 194.576L351.377 210.818L347.364 204.38C347.486 204.238 354.653 198.318 357.908 195.629L357.872 195.617ZM361.516 191.888C360.186 191.89 358.897 191.427 357.872 190.58C354.633 187.891 347.449 181.971 347.344 181.817L351.357 175.379L368.748 191.62C368.835 191.703 368.915 191.792 368.987 191.888H361.516ZM320.084 191.722L319.396 188.81C340.48 187.361 344.501 175.682 358.07 151.2C358.286 150.809 358.578 150.466 358.931 150.192C359.283 149.917 359.687 149.718 360.119 149.605C361.334 149.293 362.504 148.953 363.687 148.584C343.165 185.502 341.95 193.03 320.084 191.722ZM272.452 309.079C254.882 296.206 269.099 295.619 269.366 280.021C276.708 292.922 269.063 295.254 272.452 309.079ZM240.693 334.055C234.595 321.907 229.651 326.79 233.858 318.117C248.638 336.371 253.108 327.353 243.487 346.632C244.018 342.016 242.945 338.533 240.693 334.055ZM234.644 311.901C257.405 322.996 255.052 321.328 251.011 332.739C245.289 324.166 234.798 321.562 234.644 311.901ZM229.987 302.754C243.629 310.326 251.25 298.299 253.611 319.959C243.329 310.135 237.478 315.565 229.987 302.754ZM222.05 339.051C222.338 344.052 223.148 347.608 225.917 351.341C207.947 339.452 216.325 345.028 219.997 321.83C227.979 327.236 221.281 325.498 222.05 339.051ZM165.874 321.83C169.547 345.028 177.925 339.452 159.954 351.341C162.724 347.608 163.534 344.052 163.821 339.051C164.591 325.498 157.893 327.236 165.874 321.83ZM142.388 346.632C132.767 327.353 137.238 336.371 152.018 318.117C156.229 326.79 151.281 321.927 145.182 334.055C142.927 338.533 141.854 342.016 142.384 346.632H142.388ZM134.865 332.739C130.816 321.328 128.471 322.996 151.232 311.901C151.074 321.562 140.582 324.166 134.861 332.739H134.865ZM132.265 319.959C134.626 298.303 142.247 310.326 155.889 302.754C148.394 315.565 142.542 310.135 132.261 319.959H132.265ZM116.509 280.021C116.777 295.619 130.994 296.218 113.424 309.079C116.809 295.254 109.164 292.922 116.505 280.021H116.509ZM113.424 77.1507C130.994 90.0234 116.777 90.6106 116.509 106.208C109.164 93.2993 116.809 90.9669 113.42 77.1426L113.424 77.1507ZM145.182 52.1746C151.281 64.3022 156.229 59.439 152.018 68.1126C137.238 49.8584 132.767 58.8762 142.388 39.5975C141.854 44.2056 142.927 47.688 145.178 52.1665L145.182 52.1746ZM151.228 74.3202C128.467 63.2251 130.82 64.8934 134.861 53.4825C140.582 62.0549 151.074 64.6586 151.228 74.3202ZM155.885 83.4676C142.243 75.8954 134.622 87.9218 132.261 66.2621C142.542 76.0857 148.394 70.6556 155.885 83.4676ZM163.821 47.1697C163.534 42.1688 162.724 38.6135 159.954 34.88C177.925 46.7688 169.547 41.1929 165.874 64.3913C157.893 58.9855 164.591 60.7227 163.821 47.1697ZM219.997 64.3913C216.325 41.1929 207.947 46.7688 225.917 34.88C223.148 38.6135 222.338 42.1688 222.05 47.1697C221.281 60.7227 227.979 58.9855 219.997 64.3913ZM243.483 39.5894C253.104 58.8681 248.634 49.8503 233.854 68.1045C229.647 59.4309 234.591 64.2941 240.689 52.1665C242.945 47.688 244.018 44.2056 243.487 39.5894H243.483ZM251.007 53.4825C255.056 64.8934 257.401 63.2251 234.64 74.3202C234.798 64.6586 245.289 62.0549 251.011 53.4825H251.007ZM253.607 66.2621C251.246 87.9178 243.625 75.8954 229.983 83.4676C237.478 70.6556 243.329 76.0857 253.611 66.2621H253.607ZM269.362 106.2C269.095 90.6025 254.878 90.0032 272.448 77.1426C269.063 90.9669 276.708 93.2993 269.366 106.2H269.362ZM199.01 300.012C203.513 295.736 203.642 292.493 204.574 289.399L209.959 290.589C209.959 298.101 202.844 308.528 194.134 309.589V302.571C195.847 302.361 197.447 301.523 199.01 300.012ZM194.151 300.275V293.359C195.039 292.967 195.781 292.305 196.272 291.468C197.317 289.824 197.989 287.933 198.783 286.147C201.8 288.083 202.516 288.48 202.464 288.877C201.034 296.331 197.155 299.571 194.151 300.287V300.275ZM194.033 267.95C200.585 267.302 207.465 262.281 208.044 255.996C211.02 266.014 211.401 266.484 210.409 267.261C203.177 272.93 205.926 284.475 214.053 284.941C214.629 284.965 215.193 285.11 215.709 285.366C216.032 285.528 216.311 285.767 216.519 286.062C217.001 286.763 217.07 287.658 217.114 288.492C217.12 288.56 217.132 288.628 217.151 288.694C214.893 289.038 212.592 288.967 210.36 288.484C200.666 286.649 195.183 283.005 194.029 267.962L194.033 267.95ZM186.862 86.209C182.359 90.485 182.229 93.7285 181.298 96.8222L175.913 95.6317C175.913 88.1202 183.027 77.6933 191.737 76.6324V83.662C190.024 83.8604 188.425 84.6986 186.862 86.209ZM191.721 85.9458V92.8741C190.833 93.2666 190.091 93.928 189.599 94.7652C188.554 96.4092 187.882 98.3002 187.089 100.082C184.072 98.1504 183.355 97.7535 183.408 97.3567C184.837 89.8898 188.716 86.6504 191.721 85.9336V85.9458ZM191.838 118.271C185.287 118.919 178.407 123.94 177.828 130.225C174.852 120.207 174.471 119.737 175.463 118.96C182.695 113.291 179.946 101.746 171.819 101.28C171.243 101.256 170.679 101.112 170.163 100.855C169.839 100.694 169.561 100.454 169.353 100.159C168.871 99.4583 168.802 98.5634 168.757 97.7292C168.752 97.6608 168.739 97.593 168.721 97.5268C170.979 97.1829 173.28 97.2543 175.512 97.7373C185.206 99.5717 190.688 103.216 191.843 118.259L191.838 118.271ZM300.113 191.896H293.184C292.792 191.008 292.13 190.266 291.293 189.774C289.649 188.729 287.758 188.057 285.977 187.263C287.908 184.247 288.305 183.53 288.702 183.583C296.157 185.012 299.396 188.891 300.113 191.896ZM289.236 181.457L290.427 176.071C297.938 176.071 308.365 183.186 309.426 191.896H302.397C302.186 190.195 301.348 188.596 299.85 187.037C295.573 182.522 292.33 182.392 289.236 181.461V181.457ZM290.698 193.111C290.689 193.354 290.619 193.591 290.492 193.799C290.366 194.008 290.189 194.18 289.977 194.301C283.624 198.35 283.498 196.654 276.465 193.111C283.482 189.567 283.624 187.846 289.977 191.92C290.189 192.041 290.366 192.213 290.492 192.422C290.619 192.63 290.689 192.867 290.698 193.111ZM288.309 175.666C286.487 185.384 282.83 190.863 267.787 192.017C267.139 185.465 262.118 178.586 255.834 178.007C265.852 175.03 266.321 174.65 267.099 175.642C272.768 182.874 284.312 180.124 284.778 171.997C284.802 171.422 284.947 170.857 285.203 170.341C285.365 170.018 285.604 169.74 285.9 169.531C286.6 169.05 287.495 168.981 288.329 168.936C288.398 168.93 288.466 168.918 288.532 168.9C288.869 171.15 288.793 173.443 288.309 175.666ZM247.006 224.331C248.351 222.002 246.314 217.722 238.665 215.357C242.341 213.284 242.159 213.28 244.39 214.292C251.42 217.463 252.704 222.913 250.667 226.44C248.63 229.967 243.265 231.587 237.004 227.084C235.008 225.659 235.105 225.813 235.061 221.589C240.944 227.04 245.67 226.659 247.014 224.331H247.006ZM234.935 217.362C235.03 217.188 235.183 217.052 235.367 216.978C235.551 216.905 235.755 216.897 235.943 216.957C240.6 218.37 246.723 220.577 245.014 223.173C243.617 225.95 238.648 221.751 235.093 218.427C234.95 218.293 234.857 218.115 234.83 217.921C234.802 217.727 234.842 217.53 234.943 217.362H234.935ZM229.744 212.345C229.817 211.61 229.943 210.882 230.121 210.166C234.121 210.506 239.985 210.976 241.378 206.093C242.625 201.148 237.3 198.638 233.684 196.933C233.888 196.225 234.142 195.532 234.445 194.86C235.66 192.43 246.723 198.634 244.261 206.858C242.264 215.212 229.606 215.05 229.744 212.345ZM192.936 232.591C186.052 232.454 185.441 223.399 187.174 222.926C189.866 222.193 191.757 220.731 192.936 218.471C194.114 220.743 196.005 222.205 198.698 222.926C200.431 223.416 199.82 232.47 192.936 232.607V232.591ZM193.786 242.273C194.888 247.015 196.042 253.417 192.936 253.235C189.83 253.417 190.984 247.015 192.085 242.273C192.131 242.082 192.24 241.912 192.395 241.791C192.549 241.669 192.739 241.603 192.936 241.603C193.132 241.603 193.323 241.669 193.477 241.791C193.631 241.912 193.74 242.082 193.786 242.273ZM138.857 224.331C140.202 226.659 144.931 227.04 150.803 221.593C150.758 225.817 150.855 225.643 148.859 227.088C142.599 231.591 137.238 229.975 135.197 226.444C133.156 222.913 134.444 217.463 141.473 214.296C143.704 213.284 143.522 213.288 147.199 215.361C139.55 217.722 137.513 222.002 138.857 224.331ZM150.77 218.435C147.215 221.759 142.247 225.958 140.85 223.181C139.141 220.585 145.263 218.378 149.92 216.965C150.109 216.906 150.312 216.913 150.495 216.985C150.679 217.057 150.833 217.189 150.932 217.36C151.031 217.531 151.069 217.731 151.04 217.926C151.01 218.121 150.915 218.301 150.77 218.435ZM141.627 206.878C139.165 198.654 150.208 192.467 151.443 194.88C151.746 195.552 152 196.245 152.204 196.953C148.56 198.658 143.247 201.169 144.51 206.113C145.903 211.017 151.767 210.527 155.767 210.186C155.945 210.903 156.071 211.631 156.144 212.365C156.265 215.05 143.607 215.212 141.627 206.878ZM138.857 161.89C137.513 164.219 139.55 168.499 147.199 170.864C143.522 172.937 143.704 172.941 141.473 171.929C134.444 168.758 133.16 163.308 135.197 159.781C137.234 156.254 142.599 154.634 148.859 159.137C150.855 160.562 150.758 160.408 150.803 164.632C144.927 159.181 140.202 159.562 138.857 161.89ZM150.928 168.859C150.833 169.033 150.681 169.169 150.497 169.243C150.313 169.317 150.109 169.324 149.92 169.264C145.263 167.851 139.141 165.644 140.85 163.049C142.247 160.271 147.215 164.47 150.77 167.794C150.915 167.927 151.01 168.105 151.038 168.299C151.067 168.493 151.028 168.691 150.928 168.859ZM156.128 173.876C156.055 174.611 155.929 175.339 155.751 176.055C151.75 175.715 145.887 175.245 144.494 180.128C143.247 185.073 148.572 187.583 152.188 189.288C151.984 189.996 151.73 190.689 151.426 191.361C150.212 193.791 139.149 187.587 141.611 179.363C143.607 171.009 156.265 171.171 156.128 173.876ZM192.936 153.63C199.82 153.768 200.431 162.822 198.698 163.296C196.005 164.028 194.114 165.49 192.936 167.75C191.757 165.478 189.866 164.016 187.174 163.296C185.441 162.806 186.052 153.751 192.936 153.614V153.63ZM192.085 143.948C190.984 139.206 189.83 132.804 192.936 132.987C196.042 132.804 194.888 139.206 193.786 143.948C193.74 144.139 193.631 144.309 193.477 144.43C193.323 144.552 193.132 144.618 192.936 144.618C192.739 144.618 192.549 144.552 192.395 144.43C192.24 144.309 192.131 144.139 192.085 143.948ZM247.014 161.89C245.67 159.562 240.94 159.181 235.069 164.628C235.113 160.404 235.016 160.578 237.012 159.133C243.273 154.63 248.634 156.246 250.675 159.777C252.716 163.308 251.428 168.758 244.398 171.925C242.167 172.937 242.349 172.933 238.673 170.86C246.322 168.499 248.359 164.219 247.014 161.89ZM235.101 167.786C238.657 164.462 243.605 160.263 245.022 163.04C246.731 165.636 240.608 167.843 235.952 169.256C235.763 169.315 235.56 169.308 235.376 169.236C235.192 169.164 235.038 169.032 234.939 168.861C234.84 168.69 234.803 168.49 234.832 168.295C234.861 168.1 234.956 167.92 235.101 167.786ZM244.245 179.363C246.707 187.587 235.664 193.775 234.429 191.361C234.126 190.689 233.871 189.996 233.668 189.288C237.312 187.583 242.625 185.073 241.361 180.128C239.968 175.225 234.105 175.715 230.104 176.055C229.927 175.339 229.801 174.611 229.728 173.876C229.606 171.171 242.264 171.009 244.245 179.363ZM242.115 192.26C246.856 191.159 253.258 190.005 253.076 193.111C253.258 196.216 246.856 195.062 242.115 193.961C241.924 193.915 241.754 193.806 241.632 193.652C241.511 193.498 241.445 193.307 241.445 193.111C241.445 192.914 241.511 192.724 241.632 192.569C241.754 192.415 241.924 192.306 242.115 192.26ZM216.827 217.001C223.735 218.747 225.606 219.241 227.476 221.889C228.647 223.541 228.124 225.533 226.735 226.922C225.346 228.311 223.354 228.833 221.702 227.663C219.054 225.797 218.56 223.922 216.815 217.014L216.827 217.001ZM215.879 213.017C216.592 210.32 216.284 207.947 214.891 205.793C217.446 205.906 219.661 204.983 221.637 203.039C222.913 201.772 230.449 206.834 227.132 212.859C223.581 218.751 215.434 214.754 215.891 213.017H215.879ZM204.011 204.25H204.075V204.185C205.979 204.615 207.963 205.372 210.089 204.27C212.903 204.521 215.64 210.919 213.174 213.337C210.708 215.754 204.359 213.066 204.108 210.251C205.209 208.138 204.452 206.153 204.023 204.25H204.011ZM204.096 175.958C204.347 173.143 210.745 170.406 213.162 172.872C215.58 175.338 212.891 181.687 210.077 181.939C207.951 180.837 205.966 181.594 204.063 182.024V181.959H203.999C204.452 180.068 205.209 178.084 204.108 175.958H204.096ZM215.879 173.204C215.422 171.467 223.573 167.47 227.132 173.362C230.449 179.387 222.913 184.449 221.637 183.182C219.661 181.218 217.446 180.315 214.891 180.428C216.28 178.274 216.604 175.901 215.891 173.204H215.879ZM216.827 169.22C218.572 162.312 219.066 160.437 221.714 158.57C223.366 157.4 225.359 157.922 226.748 159.311C228.136 160.7 228.659 162.692 227.489 164.344C225.618 166.993 223.747 167.487 216.839 169.232L216.827 169.22ZM220.58 185.717C221.508 189.041 215.94 193.216 213.373 192.025C212.085 190.001 209.987 189.669 208.109 189.09L208.153 189.041H208.092C209.412 187.608 211.065 186.267 211.17 183.874C212.81 181.53 219.722 182.36 220.58 185.704V185.717ZM211.101 193.111C211.101 194.589 206.817 196.135 200.091 193.111C206.817 190.086 211.109 191.633 211.101 193.111ZM208.671 184.028C209.421 185.303 206.473 188.79 199.135 189.531C203.464 183.554 207.918 182.744 208.667 184.028H208.671ZM196.524 186.915C197.265 179.578 200.751 176.63 202.027 177.379C203.302 178.128 202.492 182.603 196.515 186.915H196.524ZM199.139 196.69C206.477 197.431 209.425 200.918 208.675 202.193C207.926 203.469 203.464 202.667 199.131 196.69H199.139ZM202.027 208.838C200.751 209.587 197.265 206.639 196.524 199.302C202.492 203.639 203.302 208.093 202.018 208.842L202.027 208.838ZM211.194 202.359C211.089 199.966 209.437 198.626 208.117 197.192H208.177L208.133 197.144C209.996 196.565 212.093 196.229 213.397 194.208C215.964 193.017 221.532 197.192 220.605 200.517C219.722 203.861 212.81 204.692 211.186 202.379L211.194 202.359ZM225.585 201.845C232.441 199.901 234.308 199.391 237.255 200.752C239.09 201.598 239.632 203.586 239.126 205.481C238.62 207.376 237.154 208.826 235.142 208.644C231.906 208.352 230.542 206.975 225.577 201.865L225.585 201.845ZM222.775 198.852C222.042 196.16 220.58 194.269 218.321 193.09C220.593 191.912 222.054 190.021 222.775 187.328C223.249 185.595 232.303 186.211 232.441 193.09C232.295 199.994 223.241 200.606 222.767 198.873L222.775 198.852ZM225.61 184.352C230.574 179.242 231.939 177.873 235.17 177.569C237.195 177.387 238.644 178.833 239.155 180.732C239.665 182.631 239.118 184.615 237.284 185.461C234.304 186.826 232.437 186.316 225.581 184.372L225.61 184.352ZM228.039 170.831C227.44 170.4 226.871 169.926 226.339 169.414C228.634 166.122 232.008 161.287 228.44 157.627C224.796 154.075 219.937 157.432 216.653 159.728C216.141 159.195 215.667 158.627 215.235 158.027C213.765 155.756 224.646 149.285 230.538 155.529C236.741 161.441 230.27 172.321 227.999 170.839L228.039 170.831ZM216.831 150.075C218.244 145.418 220.451 139.295 223.046 141.004C225.824 142.401 221.625 147.37 218.301 150.925C218.166 151.07 217.987 151.165 217.792 151.194C217.596 151.223 217.397 151.186 217.226 151.087C217.055 150.988 216.923 150.834 216.851 150.65C216.779 150.466 216.772 150.263 216.831 150.075ZM221.419 150.998C226.865 145.122 226.484 140.397 224.156 139.052C221.828 137.708 217.548 139.745 215.183 147.394C213.109 143.717 213.105 143.899 214.118 141.668C217.288 134.639 222.739 133.355 226.266 135.392C229.793 137.429 231.412 142.794 226.91 149.054C225.488 151.026 225.642 150.933 221.419 150.998ZM212.842 170.175C210.145 169.463 207.772 169.77 205.618 171.163C205.732 168.608 204.808 166.393 202.865 164.417C201.597 163.142 206.659 155.606 212.684 158.922C218.576 162.465 214.579 170.613 212.842 170.155V170.175ZM208.473 150.929C208.177 154.168 206.801 155.525 201.69 160.489C199.747 153.634 199.237 151.767 200.597 148.819C201.443 146.985 203.432 146.442 205.327 146.949C207.222 147.455 208.655 148.896 208.473 150.909V150.929ZM200.342 165.506C203.687 166.365 204.517 173.277 202.205 174.901C199.812 175.006 198.471 176.658 197.038 177.978V177.918L196.989 177.962C196.41 176.099 196.074 174.002 194.053 172.698C192.843 170.106 197.018 164.539 200.342 165.466V165.506ZM192.936 185.955C189.911 179.23 191.458 174.937 192.936 174.945C194.414 174.953 195.961 179.23 192.936 185.955ZM192.936 211.276C191.458 211.276 189.911 206.992 192.936 200.266C195.961 206.992 194.414 211.284 192.936 211.276ZM191.838 172.674C189.814 173.961 189.482 176.059 188.903 177.938L188.854 177.893V177.954C187.421 176.634 186.08 174.982 183.687 174.877C181.375 173.257 182.205 166.341 185.55 165.482C188.854 164.539 193.029 170.106 191.838 172.674ZM181.764 210.263C181.513 213.078 175.119 215.815 172.689 213.357C170.26 210.899 172.961 204.542 175.775 204.291C177.901 205.392 179.885 204.635 181.788 204.206V204.27H181.853C181.42 206.153 180.662 208.137 181.764 210.263ZM169.98 213.017C170.438 214.754 162.287 218.751 158.727 212.859C155.411 206.834 162.947 201.772 164.222 203.039C166.198 205.003 168.413 205.906 170.968 205.793C169.592 207.947 169.268 210.32 169.98 213.017ZM169.045 217.001C167.3 223.91 166.806 225.784 164.157 227.651C162.505 228.821 160.513 228.299 159.124 226.91C157.735 225.521 157.213 223.529 158.379 221.877C160.254 219.229 162.125 218.735 169.033 216.989L169.045 217.001ZM169.045 169.22C162.137 167.474 160.266 166.98 158.391 164.332C157.225 162.68 157.747 160.688 159.136 159.299C160.525 157.91 162.518 157.388 164.17 158.558C166.818 160.425 167.312 162.299 169.057 169.208L169.045 169.22ZM169.993 173.204C169.28 175.901 169.588 178.274 170.981 180.428C168.425 180.315 166.21 181.238 164.234 183.182C162.959 184.449 155.423 179.387 158.739 173.362C162.291 167.47 170.438 171.467 169.98 173.204H169.993ZM181.861 181.971H181.796V182.036C179.893 181.606 177.909 180.849 175.783 181.951C172.969 181.687 170.231 175.294 172.689 172.864C175.147 170.434 181.505 173.135 181.756 175.95C180.662 178.084 181.42 180.068 181.849 181.971H181.861ZM177.216 184.028C177.949 182.744 182.44 183.554 186.753 189.531C179.403 188.79 176.455 185.303 177.204 184.028H177.216ZM185.781 193.111C179.055 196.135 174.763 194.589 174.771 193.111C174.779 191.633 179.055 190.086 185.781 193.111ZM174.686 183.842C174.791 186.235 176.443 187.575 177.763 189.009H177.702L177.747 189.057C175.884 189.636 173.787 189.972 172.483 191.993C169.916 193.183 164.348 189.009 165.275 185.684C166.15 182.36 173.062 181.53 174.686 183.842ZM160.294 184.356C153.439 186.3 151.572 186.81 148.624 185.449C146.79 184.603 146.247 182.615 146.754 180.72C147.26 178.825 148.726 177.375 150.738 177.557C153.965 177.869 155.33 179.246 160.294 184.356ZM163.105 187.348C163.838 190.041 165.299 191.932 167.559 193.111C165.287 194.289 163.825 196.18 163.105 198.873C162.631 200.606 153.577 199.99 153.439 193.111C153.577 186.227 162.631 185.615 163.105 187.348ZM160.27 201.849C155.306 206.959 153.941 208.328 150.71 208.632C148.685 208.814 147.235 207.368 146.725 205.469C146.215 203.57 146.762 201.586 148.596 200.739C151.568 199.395 153.435 199.905 160.29 201.849H160.27ZM165.271 200.517C164.344 197.192 169.911 193.017 172.479 194.208C173.766 196.233 175.864 196.565 177.743 197.144L177.698 197.192H177.759C176.439 198.626 174.787 199.966 174.682 202.359C173.062 204.692 166.15 203.861 165.291 200.517H165.271ZM177.184 202.193C176.435 200.918 179.383 197.431 186.72 196.69C182.428 202.667 177.953 203.477 177.204 202.193H177.184ZM189.332 199.306C188.591 206.643 185.104 209.591 183.829 208.842C182.553 208.093 183.379 203.639 189.356 199.306H189.332ZM183.829 177.379C185.104 176.63 188.591 179.578 189.332 186.915C183.379 182.603 182.57 178.128 183.853 177.379H183.829ZM184.173 160.465C179.063 155.501 177.694 154.136 177.391 150.905C177.208 148.88 178.654 147.43 180.553 146.92C182.452 146.41 184.436 146.957 185.283 148.791C186.651 151.743 186.141 153.61 184.197 160.465H184.173ZM182.983 164.397C181.019 166.373 180.116 168.588 180.229 171.143C178.075 169.766 175.702 169.442 173.005 170.155C171.268 170.613 167.271 162.461 173.163 158.902C179.213 155.586 184.274 163.121 183.007 164.397H182.983ZM161.716 139.032C159.387 140.376 159.007 145.106 164.453 150.978C160.23 150.933 160.404 151.026 158.958 149.034C154.455 142.774 156.071 137.412 159.602 135.372C163.133 133.331 168.583 134.618 171.75 141.648C172.762 143.879 172.758 143.697 170.685 147.374C168.324 139.725 164.044 137.688 161.716 139.032ZM168.685 151.103C168.515 151.205 168.315 151.245 168.12 151.216C167.924 151.187 167.744 151.092 167.612 150.945C164.287 147.39 160.088 142.421 162.866 141.024C165.461 139.316 167.668 145.438 169.081 150.095C169.142 150.283 169.136 150.486 169.063 150.67C168.991 150.854 168.857 151.007 168.685 151.103ZM170.665 158.048C170.233 158.647 169.759 159.216 169.247 159.748C165.955 157.452 161.12 154.079 157.46 157.647C153.909 161.291 157.266 166.15 159.562 169.434C159.029 169.946 158.461 170.42 157.861 170.852C155.589 172.321 149.118 161.441 155.362 155.549C161.266 149.305 172.147 155.776 170.665 158.048ZM144.433 193.111C144.437 193.309 144.371 193.502 144.248 193.657C144.124 193.812 143.951 193.92 143.757 193.961C139.015 195.062 132.613 196.216 132.796 193.111C132.613 190.005 139.015 191.159 143.757 192.26C143.951 192.302 144.124 192.409 144.248 192.564C144.371 192.719 144.437 192.912 144.433 193.111ZM142.206 189.511C134.395 187.733 130.492 190.422 130.492 193.111C130.492 195.799 134.395 198.488 142.206 196.71C140.052 200.355 140.218 200.258 137.776 200.496C130.103 201.266 126.268 197.188 126.268 193.111C126.268 189.033 130.103 184.955 137.776 185.725C140.218 185.964 140.052 185.874 142.206 189.511ZM157.873 215.382C158.473 215.813 159.041 216.287 159.574 216.799C157.278 220.091 153.905 224.926 157.472 228.586C161.116 232.138 165.976 228.781 169.26 226.485C169.772 227.018 170.245 227.586 170.677 228.186C172.147 230.457 161.266 236.928 155.375 230.684C149.13 224.78 155.601 213.9 157.873 215.382ZM169.081 236.138C167.668 240.795 165.461 246.918 162.866 245.209C160.088 243.812 164.287 238.843 167.612 235.288C167.746 235.143 167.925 235.048 168.12 235.019C168.316 234.99 168.515 235.027 168.686 235.126C168.857 235.225 168.989 235.379 169.061 235.563C169.133 235.747 169.14 235.95 169.081 236.138ZM164.453 235.256C159.007 241.131 159.387 245.857 161.716 247.201C164.044 248.546 168.324 246.509 170.689 238.86C172.762 242.536 172.766 242.354 171.754 244.585C168.583 251.615 163.133 252.898 159.606 250.862C156.079 248.825 154.459 243.46 158.962 237.199C160.383 235.191 160.23 235.288 164.453 235.244V235.256ZM173.029 216.078C175.726 216.791 178.099 216.483 180.253 215.09C180.14 217.645 181.063 219.86 183.007 221.836C184.274 223.112 179.213 230.648 173.187 227.331C167.296 223.756 171.292 215.608 173.029 216.066V216.078ZM177.399 235.325C177.694 232.085 179.071 230.729 184.181 225.764C186.125 232.62 186.635 234.486 185.275 237.434C184.428 239.269 182.44 239.811 180.545 239.305C178.65 238.799 177.216 237.325 177.399 235.312V235.325ZM185.53 220.747C182.185 219.889 181.355 212.976 183.667 211.353C186.06 211.247 187.4 209.595 188.834 208.275V208.336L188.882 208.291C189.462 210.154 189.798 212.252 191.818 213.555C193.029 216.115 188.854 221.682 185.53 220.755V220.747ZM194.033 213.539C196.058 212.252 196.39 210.154 196.969 208.275L197.018 208.32V208.259C198.451 209.579 199.791 211.231 202.184 211.336C204.497 212.956 203.666 219.872 200.322 220.731C197.018 221.682 192.843 216.115 194.033 213.547V213.539ZM201.674 225.748C206.784 230.712 208.153 232.077 208.457 235.308C208.639 237.333 207.193 238.783 205.294 239.293C203.395 239.803 201.411 239.256 200.565 237.422C199.22 234.478 199.731 232.611 201.674 225.756V225.748ZM202.865 221.816C204.829 219.84 205.732 217.625 205.618 215.07C207.772 216.447 210.145 216.771 212.842 216.058C214.579 215.6 218.576 223.752 212.684 227.311C206.659 230.635 201.597 223.1 202.865 221.824V221.816ZM224.156 247.181C226.484 245.837 226.865 241.107 221.419 235.235C225.642 235.28 225.468 235.183 226.914 237.179C231.416 243.439 229.801 248.801 226.27 250.841C222.739 252.882 217.288 251.595 214.122 244.565C213.109 242.334 213.114 242.516 215.187 238.839C217.548 246.497 221.828 248.533 224.156 247.189V247.181ZM217.187 235.11C217.357 235.008 217.556 234.968 217.752 234.997C217.948 235.026 218.127 235.121 218.26 235.268C221.585 238.823 225.784 243.771 223.006 245.189C220.41 246.897 218.203 240.775 216.79 236.118C216.732 235.931 216.739 235.73 216.811 235.548C216.884 235.366 217.016 235.214 217.187 235.118V235.11ZM215.207 228.173C215.639 227.574 216.112 227.005 216.624 226.473C219.916 228.769 224.751 232.142 228.412 228.574C231.963 224.93 228.606 220.071 226.31 216.787C226.843 216.275 227.411 215.801 228.011 215.37C230.283 213.9 236.753 224.78 230.509 230.672C224.605 236.916 213.725 230.445 215.207 228.173ZM243.678 196.71C251.489 198.488 255.392 195.799 255.392 193.111C255.392 190.422 251.489 187.733 243.678 189.511C245.832 185.866 245.666 185.964 248.108 185.725C255.781 184.955 259.616 189.033 259.616 193.111C259.616 197.188 255.781 201.266 248.108 200.496C245.654 200.258 245.82 200.347 243.666 196.71H243.678ZM244.151 174.35L244.24 174.297C244.368 174.208 244.503 174.13 244.645 174.067C253.773 170.657 255.174 163.502 252.452 158.752C249.731 154.002 242.803 151.654 235.283 157.853C235.156 157.948 235.021 158.03 234.879 158.1L234.785 158.149C233.571 156.076 232.821 155.132 233.465 154.505C240.442 147.544 251.076 150.289 255.08 157.254C259.085 164.219 256.17 174.783 246.654 177.347C245.767 177.561 245.322 176.444 244.139 174.35H244.151ZM231.574 152.585C230.926 153.229 229.983 152.484 227.93 151.265L227.978 151.172C228.048 151.03 228.131 150.894 228.226 150.767C234.425 143.247 232.076 136.339 227.327 133.598C222.577 130.857 215.422 132.278 212.012 141.405C211.949 141.547 211.871 141.683 211.781 141.81C211.765 141.84 211.748 141.87 211.729 141.899C209.635 140.717 208.518 140.279 208.752 139.388C211.316 129.873 221.896 126.933 228.845 130.962C235.794 134.991 238.523 145.608 231.562 152.585H231.574ZM212.17 156.302C211.436 156.229 210.708 156.103 209.992 155.926C210.332 151.925 210.801 146.062 205.918 144.669C200.974 143.422 198.463 148.746 196.758 152.362C196.05 152.159 195.357 151.904 194.685 151.601C192.256 150.386 198.459 139.324 206.683 141.786C215.037 143.782 214.875 156.44 212.17 156.302ZM200.322 137.951C200.083 140.381 200.172 140.227 196.536 142.381C198.313 134.57 195.625 130.666 192.936 130.666C190.247 130.666 187.558 134.57 189.336 142.381C185.692 140.227 185.789 140.393 185.55 137.951C184.781 130.278 188.858 126.443 192.936 126.443C197.013 126.443 201.091 130.278 200.322 137.951ZM191.187 151.617C190.515 151.921 189.822 152.175 189.113 152.379C187.409 148.734 184.898 143.422 179.954 144.685C175.05 146.078 175.54 151.941 175.88 155.942C175.164 156.12 174.436 156.245 173.702 156.319C170.997 156.456 170.835 143.798 179.188 141.818C187.413 139.34 193.6 150.382 191.187 151.617ZM174.179 141.899L174.127 141.81C174.037 141.683 173.96 141.547 173.896 141.405C170.486 132.278 163.331 130.857 158.582 133.598C153.832 136.339 151.483 143.247 157.683 150.767C157.777 150.894 157.86 151.03 157.93 151.172L157.978 151.265C155.905 152.48 154.962 153.229 154.334 152.585C147.373 145.608 150.119 134.975 157.083 130.97C164.048 126.965 174.613 129.881 177.176 139.397C177.387 140.279 176.269 140.725 174.175 141.907L174.179 141.899ZM152.414 154.476C153.058 155.124 152.313 156.068 151.094 158.121L151.001 158.072C150.859 158.002 150.724 157.919 150.596 157.825C143.077 151.625 136.169 153.974 133.427 158.724C130.686 163.474 132.107 170.629 141.234 174.038C141.377 174.102 141.512 174.179 141.639 174.269L141.728 174.322C140.546 176.415 140.109 177.533 139.218 177.298C129.702 174.735 126.762 164.154 130.791 157.205C134.82 150.257 145.433 147.523 152.41 154.484L152.414 154.476ZM138.529 179.914C139.412 180.153 139.238 181.343 139.218 183.749H139.113C138.955 183.762 138.796 183.762 138.639 183.749C129.03 182.129 124.219 187.624 124.219 193.111C124.219 198.597 129.03 204.08 138.639 202.473C138.796 202.459 138.955 202.459 139.113 202.473H139.218C139.238 204.878 139.412 206.068 138.529 206.307C129.005 208.846 121.17 201.152 121.186 193.119C121.202 185.085 129.001 177.383 138.525 179.922L138.529 179.914ZM139.222 208.903C140.105 208.668 140.55 209.786 141.732 211.879L141.643 211.932C141.516 212.022 141.381 212.099 141.238 212.163C132.111 215.572 130.69 222.727 133.431 227.477C136.173 232.227 143.081 234.575 150.6 228.376C150.728 228.281 150.863 228.199 151.005 228.129L151.098 228.08C152.313 230.154 153.062 231.097 152.419 231.725C145.442 238.685 134.808 235.94 130.803 228.975C126.799 222.01 129.706 211.458 139.222 208.903ZM154.31 233.644C154.957 233 155.901 233.745 157.954 234.964L157.905 235.057C157.835 235.199 157.753 235.335 157.658 235.462C151.459 242.982 153.803 249.89 158.557 252.631C163.311 255.373 170.462 253.951 173.872 244.824C173.935 244.682 174.013 244.546 174.103 244.419L174.155 244.33C176.249 245.513 177.366 245.95 177.131 246.841C174.568 256.357 163.987 259.296 157.039 255.267C150.09 251.238 147.349 240.613 154.31 233.636V233.644ZM173.702 229.927C174.436 230 175.164 230.126 175.88 230.303C175.54 234.304 175.07 240.167 179.954 241.56C184.898 242.808 187.409 237.483 189.113 233.867C189.822 234.07 190.515 234.325 191.187 234.628C193.616 235.843 187.413 246.906 179.188 244.444C170.835 242.439 170.997 229.781 173.702 229.919V229.927ZM185.55 248.278C185.789 245.849 185.7 246.003 189.336 243.848C187.558 251.659 190.247 255.563 192.936 255.563C195.625 255.563 198.313 251.659 196.536 243.848C200.18 246.003 200.083 245.837 200.322 248.278C201.091 255.952 197.013 259.786 192.936 259.786C188.858 259.786 184.781 255.944 185.55 248.27V248.278ZM194.685 234.612C195.357 234.309 196.05 234.054 196.758 233.851C198.463 237.495 200.974 242.808 205.918 241.544C210.822 240.151 210.332 234.288 209.992 230.287C210.708 230.11 211.436 229.984 212.17 229.911C214.875 229.773 215.037 242.431 206.683 244.411C198.459 246.881 192.272 235.839 194.685 234.604V234.612ZM211.692 244.33C211.711 244.359 211.729 244.389 211.745 244.419C211.835 244.546 211.912 244.682 211.976 244.824C215.385 253.951 222.54 255.352 227.29 252.631C232.04 249.91 234.389 242.982 228.189 235.462C228.095 235.335 228.012 235.199 227.942 235.057L227.893 234.964C229.967 233.749 230.91 233 231.538 233.644C238.499 240.621 235.753 251.254 228.788 255.259C221.824 259.264 211.259 256.348 208.696 246.833C208.485 245.942 209.603 245.496 211.696 244.314L211.692 244.33ZM233.457 231.753C232.813 231.105 233.558 230.162 234.777 228.109L234.87 228.157C235.013 228.227 235.148 228.31 235.275 228.404C242.795 234.604 249.703 232.255 252.444 227.505C255.186 222.755 253.764 215.6 244.637 212.191C244.495 212.127 244.36 212.05 244.232 211.96L244.143 211.907C245.326 209.814 245.763 208.696 246.654 208.931C256.17 211.494 259.11 222.075 255.08 229.024C251.051 235.972 240.438 238.698 233.461 231.737L233.457 231.753ZM247.342 206.315C246.46 206.076 246.634 204.886 246.654 202.481H246.759C246.917 202.467 247.075 202.467 247.233 202.481C256.842 204.1 261.652 198.605 261.652 193.119C261.652 187.632 256.842 182.149 247.233 183.757C247.075 183.77 246.917 183.77 246.759 183.757H246.654C246.654 181.351 246.46 180.161 247.342 179.922C256.866 177.383 264.702 185.077 264.685 193.111C264.669 201.144 256.87 208.838 247.346 206.299L247.342 206.315ZM281.64 169.357C284.017 177.711 270.302 180.12 268.366 172.917C266.431 165.713 279.526 160.919 281.644 169.341L281.64 169.357ZM287.633 166.393C286.9 166.762 286.09 167.155 285.244 167.086C284.88 167.049 284.53 166.923 284.227 166.717C283.741 166.402 283.327 165.988 283.013 165.502C278.558 158.691 267.164 162.089 265.88 171.171C265.702 172.423 265.103 172.33 254.947 174.759C260.106 171.115 261.021 162.648 258.292 156.647C271.897 150.127 277.805 153.043 284.239 160.546C285.773 162.239 286.986 164.197 287.819 166.324C287.756 166.338 287.695 166.359 287.637 166.385L287.633 166.393ZM279.777 146.835C280.256 145.991 280.459 145.018 280.356 144.053L286.353 140.591C287.236 143.551 286.382 148.544 280.632 153.488C280.312 153.735 279.611 153.314 276.428 151.666C277.566 150.071 278.882 148.544 279.781 146.819L279.777 146.835ZM279.145 141.952C278.36 141.381 277.416 141.07 276.445 141.061C274.497 140.98 272.525 141.344 270.585 141.547C270.747 137.967 270.735 137.149 271.108 136.995C278.267 134.489 283.017 136.242 285.142 138.49L279.145 141.952ZM282.158 155.047C284.373 152.694 287.115 150.965 288.572 144.924C289.078 142.814 289.001 141.008 288.337 139.429L294.411 135.914C297.845 143.984 292.387 155.375 285.867 159.121L282.158 155.047ZM287.127 137.331C286.094 135.967 284.568 134.995 282.482 134.379C276.526 132.622 273.655 134.132 270.512 134.873L268.848 129.609C275.327 125.844 287.941 126.807 293.213 133.817L287.127 137.331ZM276.384 143.559C276.628 143.55 276.871 143.608 277.085 143.727C277.299 143.845 277.477 144.02 277.599 144.232C277.721 144.444 277.783 144.685 277.778 144.93C277.773 145.175 277.701 145.413 277.57 145.62C274.096 152.306 273.116 150.884 265.277 151.346C269.581 144.766 268.852 143.227 276.384 143.559ZM257.21 154.739C253.372 149.378 245.577 145.936 239.855 148.568C247.043 140.98 247.261 140.413 248.432 140.875C256.935 144.308 265.58 136.149 261.916 128.876C261.649 128.365 261.491 127.804 261.454 127.228C261.426 126.863 261.492 126.497 261.644 126.163C262.009 125.398 262.75 124.888 263.438 124.438C263.495 124.4 263.548 124.355 263.596 124.305C265.021 126.09 266.11 128.12 266.811 130.294C270.087 139.66 269.662 146.216 257.21 154.739ZM257.874 128.172C264.11 134.217 253.449 143.154 248.156 137.89C242.864 132.626 251.829 121.936 257.874 128.172ZM261.584 122.608C261.134 123.297 260.624 124.038 259.859 124.402C259.526 124.555 259.159 124.62 258.794 124.592C258.218 124.555 257.657 124.398 257.146 124.131C249.857 120.486 241.714 129.099 245.148 137.615C245.617 138.785 245.05 139.004 237.454 146.191C240.102 140.453 236.644 132.671 231.299 128.836C239.802 116.384 246.395 115.959 255.72 119.235C257.894 119.936 259.924 121.025 261.709 122.45C261.663 122.499 261.621 122.552 261.584 122.608ZM245.002 109.598C244.993 108.627 244.682 107.683 244.111 106.897L247.573 100.9C249.82 103.026 251.574 107.784 249.067 114.935C248.913 115.307 248.095 115.295 244.516 115.457C244.718 113.517 245.083 111.545 245.002 109.598ZM242.009 105.686C241.044 105.584 240.071 105.786 239.227 106.265C237.502 107.164 235.988 108.468 234.397 109.614C232.749 106.431 232.327 105.731 232.574 105.411C237.519 99.6608 242.511 98.8064 245.471 99.6891L242.009 105.686ZM234.7 120.77C235.142 112.922 233.737 111.95 240.426 108.476C240.633 108.345 240.872 108.274 241.117 108.269C241.362 108.264 241.604 108.326 241.816 108.449C242.028 108.571 242.203 108.749 242.321 108.964C242.44 109.179 242.497 109.422 242.487 109.667C242.819 117.194 241.28 116.465 234.7 120.77ZM256.437 117.198L251.173 115.534C251.914 112.392 253.424 109.521 251.667 103.564C251.051 101.479 250.08 99.9523 248.715 98.9197L252.23 92.8458C259.239 98.1058 260.203 110.699 256.437 117.198ZM246.617 97.709C245.038 97.0449 243.232 96.968 241.123 97.4741C235.081 98.9319 233.352 101.673 230.999 103.888L226.926 100.163C230.671 93.6516 242.062 88.185 250.132 91.6188L246.617 97.709ZM229.416 127.743C223.415 125.026 214.952 125.929 211.303 131.087C213.733 120.924 213.64 120.324 214.891 120.154C223.982 118.871 227.379 107.488 220.56 103.022C220.074 102.707 219.66 102.293 219.345 101.807C219.14 101.504 219.013 101.155 218.977 100.791C218.908 99.9442 219.301 99.1343 219.669 98.4014C219.699 98.3394 219.722 98.2742 219.738 98.2071C221.866 99.0398 223.824 100.253 225.517 101.787C233.024 108.229 235.935 114.149 229.416 127.743ZM213.15 117.68C205.942 115.728 208.352 102.026 216.705 104.402C225.128 106.52 220.362 119.591 213.15 117.68ZM217.134 97.7292C217.09 98.5391 217.021 99.4462 216.539 100.159C216.331 100.454 216.053 100.694 215.729 100.855C215.213 101.112 214.649 101.256 214.073 101.28C205.942 101.746 203.193 113.299 210.429 118.96C211.421 119.737 211.04 120.207 208.064 130.225C207.485 123.932 200.605 118.919 194.053 118.271C195.208 103.228 200.69 99.5717 210.405 97.7495C212.636 97.2664 214.938 97.1951 217.195 97.5389C217.169 97.6004 217.149 97.6641 217.134 97.7292ZM206.124 138.7C205.885 139.583 204.695 139.409 202.29 139.388C202.292 139.353 202.292 139.318 202.29 139.283C202.276 139.126 202.276 138.967 202.29 138.809C203.909 129.2 198.415 124.39 192.928 124.39C187.441 124.39 181.958 129.2 183.566 138.809C183.579 138.967 183.579 139.126 183.566 139.283C183.564 139.318 183.564 139.353 183.566 139.388C181.16 139.409 179.97 139.583 179.731 138.7C177.192 129.176 184.886 121.341 192.92 121.357C200.953 121.373 208.663 129.176 206.124 138.7ZM169.166 104.402C177.52 102.026 179.929 115.741 172.726 117.68C165.522 119.62 160.744 106.52 169.166 104.402ZM166.895 100.799C166.858 101.163 166.732 101.512 166.526 101.815C166.211 102.301 165.798 102.715 165.312 103.03C158.501 107.484 161.898 118.879 170.981 120.162C172.232 120.341 172.139 120.94 174.568 131.095C170.924 125.937 162.457 125.022 156.456 127.751C149.936 114.145 152.852 108.237 160.355 101.803C162.048 100.269 164.006 99.056 166.134 98.2233C166.149 98.2904 166.172 98.3556 166.202 98.4176C166.571 99.1424 166.964 99.9523 166.895 100.786V100.799ZM146.648 106.265C145.804 105.786 144.831 105.584 143.866 105.686L140.404 99.6891C143.364 98.8064 148.357 99.6608 153.301 105.411C153.548 105.731 153.127 106.431 151.479 109.614C149.896 108.48 148.369 107.164 146.644 106.265H146.648ZM151.175 120.77C144.595 116.465 143.057 117.194 143.389 109.667C143.379 109.422 143.436 109.179 143.554 108.964C143.673 108.749 143.847 108.571 144.059 108.449C144.272 108.326 144.513 108.264 144.758 108.269C145.003 108.274 145.242 108.345 145.45 108.476C152.135 111.95 150.73 112.934 151.171 120.77H151.175ZM141.36 115.457C137.78 115.295 136.962 115.307 136.808 114.935C134.302 107.776 136.055 103.026 138.303 100.9L141.765 106.897C141.194 107.683 140.883 108.627 140.874 109.598C140.789 111.545 141.153 113.517 141.356 115.457H141.36ZM154.872 103.888C152.52 101.673 150.791 98.9319 144.749 97.4741C142.639 96.968 140.833 97.0449 139.254 97.709L135.739 91.635C143.81 88.2012 155.2 93.6597 158.946 100.179L154.872 103.888ZM137.157 98.9197C135.792 99.9523 134.82 101.479 134.205 103.564C132.447 109.521 133.958 112.392 134.699 115.534L129.435 117.198C125.669 110.719 126.633 98.1058 133.642 92.8336L137.157 98.9197ZM130.143 119.235C139.457 115.959 146.041 116.401 154.565 128.836C149.203 132.671 145.761 140.47 148.394 146.191C140.805 139.004 140.238 138.785 140.7 137.615C144.134 129.111 135.974 120.466 128.702 124.131C128.191 124.398 127.629 124.555 127.054 124.592C126.688 124.62 126.322 124.555 125.989 124.402C125.223 124.038 124.713 123.297 124.264 122.608C124.225 122.551 124.18 122.498 124.13 122.45C125.923 121.023 127.961 119.933 130.143 119.235ZM137.716 137.89C132.423 143.154 121.761 134.217 127.997 128.172C134.043 121.936 142.98 132.598 137.716 137.89ZM124.227 126.188C124.38 126.521 124.446 126.887 124.418 127.253C124.38 127.828 124.223 128.39 123.956 128.901C120.312 136.19 128.924 144.333 137.44 140.899C138.61 140.429 138.829 140.996 146.017 148.593C140.279 145.944 132.5 149.402 128.661 154.747C116.21 146.224 115.785 139.648 119.06 130.326C119.761 128.152 120.851 126.123 122.276 124.337C122.323 124.387 122.376 124.432 122.433 124.471C123.122 124.912 123.863 125.422 124.227 126.188ZM120.583 151.346C112.735 150.905 111.764 152.306 108.289 145.62C108.159 145.413 108.087 145.175 108.082 144.93C108.077 144.685 108.139 144.444 108.261 144.232C108.383 144.02 108.561 143.845 108.775 143.727C108.989 143.608 109.231 143.55 109.476 143.559C117.02 143.227 116.291 144.766 120.595 151.346H120.583ZM105.511 144.037C105.409 145.002 105.612 145.975 106.09 146.819C106.989 148.544 108.293 150.058 109.439 151.65C106.256 153.298 105.556 153.719 105.236 153.472C99.4861 148.528 98.6317 143.535 99.5144 140.575L105.511 144.037ZM100.725 138.473C102.851 136.226 107.609 134.473 114.76 136.979C115.133 137.133 115.12 137.951 115.282 141.531C113.343 141.328 111.371 140.964 109.423 141.045C108.452 141.053 107.508 141.365 106.722 141.935L100.725 138.473ZM115.359 134.873C112.217 134.132 109.346 132.622 103.39 134.379C101.304 134.995 99.7776 135.967 98.745 137.331L92.6711 133.817C97.9352 126.807 110.537 125.844 117.036 129.609L115.359 134.873ZM97.5424 139.429C96.8783 141.008 96.8014 142.814 97.3075 144.924C98.7653 150.965 101.507 152.694 103.722 155.047L99.9963 159.121C93.485 155.375 88.0184 143.984 91.4523 135.914L97.5424 139.429ZM101.628 160.53C108.062 153.027 113.97 150.111 127.576 156.63C124.859 162.631 125.762 171.094 130.921 174.743C120.757 172.313 120.158 172.406 119.988 171.155C118.704 162.065 107.321 158.667 102.855 165.486C102.54 165.972 102.126 166.386 101.64 166.701C101.337 166.906 100.988 167.033 100.624 167.069C99.7776 167.138 98.9678 166.746 98.2348 166.377C98.1728 166.347 98.1076 166.324 98.0405 166.308C98.8732 164.181 100.086 162.223 101.62 160.53H101.628ZM117.51 172.9C115.562 180.104 101.859 177.695 104.236 169.341C106.346 160.919 119.417 165.685 117.501 172.9H117.51ZM99.9801 169.507C100.276 169.716 100.515 169.994 100.677 170.317C100.933 170.833 101.078 171.397 101.102 171.973C101.567 180.104 113.12 182.854 118.781 175.618C119.558 174.625 120.028 175.006 130.046 177.982C123.754 178.561 118.74 185.441 118.093 191.993C103.041 190.863 99.397 185.38 97.5626 175.666C97.0796 173.434 97.0082 171.133 97.3521 168.875C97.4183 168.894 97.4861 168.906 97.5546 168.912C98.3766 168.956 99.2715 169.025 99.972 169.507H99.9801ZM109.407 193.111C102.389 196.654 102.248 198.375 95.8943 194.301C95.6772 194.187 95.4953 194.016 95.3685 193.806C95.2416 193.596 95.1745 193.356 95.1745 193.111C95.1745 192.865 95.2416 192.625 95.3685 192.415C95.4953 192.205 95.6772 192.034 95.8943 191.92C102.231 187.867 102.389 189.567 109.407 193.111ZM97.1699 183.587C97.5748 183.534 97.9797 184.251 99.8951 187.267C98.1134 188.077 96.2223 188.733 94.5783 189.778C93.7412 190.27 93.0797 191.012 92.6873 191.9H85.7589C86.4757 188.891 89.7151 185.012 97.1699 183.587ZM86.0343 187.037C84.536 188.612 83.6978 190.211 83.4873 191.896H76.4455C77.5065 183.186 87.9334 176.055 95.4449 176.071L96.6354 181.457C93.5417 182.392 90.2982 182.522 86.0343 187.037ZM95.0926 173.779C94.6876 173.889 94.3354 173.982 93.975 174.071C92.007 174.549 89.9014 174.792 88.0063 175.565C78.7455 179.343 74.672 185.603 74.4087 191.896H68.1364C69.5739 178.65 82.5843 166.547 95.0804 168.92L95.0926 173.779ZM74.4411 194.333C74.7043 200.63 78.7901 206.886 88.0266 210.68C89.9216 211.454 92.0273 211.697 93.9952 212.175C94.3556 212.264 94.6957 212.357 95.1128 212.466V217.325C82.6167 219.698 69.6022 207.607 68.1688 194.35L74.4411 194.333ZM76.4658 194.333H83.4954C83.7059 196.034 84.5441 197.634 86.0424 199.193C90.3184 203.695 93.5619 203.825 96.6556 204.756L95.4651 210.142C87.9334 210.162 77.5065 203.031 76.4455 194.325L76.4658 194.333ZM85.7792 194.333H92.7075C93.1 195.221 93.7615 195.964 94.5986 196.455C96.2426 197.5 98.1336 198.172 99.9153 198.966C97.9838 201.983 97.5869 202.699 97.1901 202.647C89.7151 201.209 86.4757 197.33 85.7589 194.325L85.7792 194.333ZM97.5829 210.567C99.4051 200.849 103.062 195.37 118.105 194.216C118.753 200.768 123.774 207.648 130.058 208.227C120.04 211.203 119.571 211.583 118.793 210.591C113.124 203.359 101.58 206.109 101.114 214.236C101.09 214.812 100.945 215.376 100.689 215.892C100.526 216.214 100.287 216.492 99.9922 216.702C99.2917 217.184 98.3968 217.252 97.5626 217.297C97.4942 217.303 97.4264 217.315 97.3602 217.333C97.0152 215.08 97.0838 212.783 97.5626 210.555L97.5829 210.567ZM104.248 216.892C101.871 208.538 115.586 206.129 117.522 213.333C119.457 220.536 106.346 225.303 104.228 216.88L104.248 216.892ZM98.2348 219.836C98.9678 219.467 99.7776 219.075 100.624 219.144C100.988 219.18 101.337 219.307 101.64 219.512C102.126 219.827 102.54 220.241 102.855 220.727C107.309 227.538 118.704 224.14 119.988 215.058C120.166 213.807 120.765 213.9 130.921 211.47C125.762 215.114 124.847 223.582 127.576 229.583C113.97 236.102 108.062 233.186 101.628 225.683C100.094 223.99 98.8813 222.032 98.0486 219.905C98.1129 219.889 98.1754 219.865 98.2348 219.836ZM106.09 239.394C105.612 240.238 105.409 241.211 105.511 242.176L99.5144 245.638C98.6317 242.678 99.4861 237.685 105.236 232.741C105.556 232.494 106.256 232.915 109.439 234.563C108.305 236.151 106.989 237.677 106.09 239.402V239.394ZM106.722 244.278C107.508 244.848 108.452 245.16 109.423 245.168C111.371 245.249 113.343 244.885 115.282 244.682C115.12 248.262 115.133 249.08 114.76 249.234C107.601 251.74 102.851 249.987 100.725 247.74L106.722 244.278ZM103.714 231.174C101.499 233.527 98.7572 235.256 97.2994 241.297C96.7933 243.407 96.8702 245.213 97.5343 246.792L91.4604 250.307C88.0265 242.237 93.485 230.846 100.004 227.1L103.714 231.174ZM98.745 248.89C99.7776 250.254 101.304 251.226 103.39 251.842C109.346 253.599 112.217 252.089 115.359 251.348L117.024 256.612C110.545 260.378 97.9311 259.414 92.6589 252.404L98.745 248.89ZM109.488 242.662C109.243 242.671 109.001 242.613 108.787 242.494C108.573 242.376 108.395 242.201 108.273 241.989C108.151 241.777 108.089 241.536 108.094 241.291C108.099 241.046 108.171 240.808 108.301 240.601C111.776 233.911 112.756 235.337 120.595 234.875C116.291 241.455 117.02 242.994 109.488 242.662ZM128.661 231.482C132.5 236.843 140.295 240.285 146.017 237.653C138.829 245.241 138.61 245.808 137.44 245.347C128.937 241.913 120.291 250.072 123.956 257.345C124.223 257.856 124.38 258.417 124.418 258.993C124.446 259.358 124.38 259.725 124.227 260.058C123.863 260.823 123.122 261.333 122.433 261.783C122.377 261.823 122.324 261.867 122.276 261.916C120.851 260.131 119.761 258.102 119.06 255.927C115.785 246.582 116.21 240.006 128.661 231.482ZM127.997 258.049C121.761 252.004 132.423 243.067 137.716 248.331C143.008 253.595 134.043 264.285 127.997 258.049ZM124.288 263.613C124.738 262.925 125.248 262.184 126.013 261.819C126.346 261.666 126.713 261.601 127.078 261.629C127.654 261.666 128.215 261.823 128.726 262.09C136.015 265.735 144.158 257.122 140.724 248.606C140.254 247.436 140.821 247.217 148.418 240.03C145.77 245.768 149.228 253.55 154.573 257.385C146.049 269.837 139.477 270.262 130.151 266.986C127.977 266.285 125.948 265.196 124.163 263.771C124.21 263.723 124.252 263.67 124.288 263.613ZM140.87 276.623C140.879 277.594 141.19 278.538 141.761 279.324L138.299 285.321C136.051 283.195 134.298 278.437 136.804 271.286C136.958 270.914 137.776 270.926 141.356 270.764C141.153 272.704 140.789 274.676 140.87 276.623ZM143.862 280.535C144.827 280.637 145.8 280.435 146.644 279.956C148.369 279.057 149.884 277.753 151.475 276.607C153.123 279.79 153.544 280.49 153.297 280.81C148.353 286.56 143.36 287.415 140.4 286.532L143.862 280.535ZM151.171 265.451C150.73 273.299 152.135 274.271 145.446 277.745C145.239 277.876 145 277.947 144.755 277.952C144.511 277.957 144.269 277.895 144.057 277.773C143.845 277.651 143.67 277.474 143.552 277.26C143.433 277.045 143.376 276.803 143.385 276.559C143.052 269.027 144.591 269.756 151.171 265.451ZM129.435 269.023L134.699 270.687C133.958 273.829 132.447 276.7 134.205 282.657C134.82 284.742 135.792 286.269 137.157 287.301L133.642 293.375C126.633 288.115 125.669 275.522 129.435 269.023ZM139.254 288.512C140.833 289.176 142.639 289.253 144.749 288.747C150.791 287.289 152.52 284.548 154.872 282.333L158.946 286.058C155.2 292.569 143.81 298.036 135.739 294.602L139.254 288.512ZM156.456 258.478C162.457 261.195 170.92 260.293 174.568 255.134C172.139 265.297 172.232 265.897 170.981 266.067C161.89 267.35 158.492 278.733 165.312 283.199C165.798 283.514 166.211 283.928 166.526 284.414C166.732 284.717 166.858 285.066 166.895 285.431C166.964 286.277 166.571 287.087 166.202 287.82C166.172 287.882 166.149 287.947 166.134 288.014C164.006 287.181 162.048 285.968 160.355 284.434C152.848 277.992 149.936 272.072 156.456 258.478ZM172.726 268.541C179.929 270.493 177.52 284.196 169.166 281.819C160.744 279.701 165.51 266.63 172.726 268.541ZM168.737 288.492C168.782 287.682 168.851 286.775 169.332 286.062C169.541 285.767 169.819 285.528 170.142 285.366C170.658 285.11 171.223 284.965 171.798 284.941C179.929 284.475 182.679 272.922 175.443 267.261C174.451 266.484 174.831 266.014 177.808 255.996C178.387 262.289 185.266 267.302 191.818 267.95C190.688 283.005 185.206 286.649 175.491 288.484C173.26 288.967 170.958 289.038 168.701 288.694C168.719 288.628 168.731 288.56 168.737 288.492ZM179.747 247.521C179.986 246.638 181.177 246.808 183.582 246.833C183.58 246.868 183.58 246.903 183.582 246.938C183.595 247.096 183.595 247.254 183.582 247.412C181.962 257.021 187.457 261.831 192.944 261.831C198.431 261.831 203.913 257.021 202.306 247.412C202.293 247.254 202.293 247.096 202.306 246.938C202.308 246.903 202.308 246.868 202.306 246.833C204.711 246.808 205.902 246.638 206.141 247.521C208.68 257.045 200.986 264.88 192.952 264.864C184.918 264.848 177.208 257.045 179.747 247.521ZM216.705 281.819C208.352 284.196 205.942 270.481 213.15 268.541C220.358 266.601 225.128 279.701 216.705 281.819ZM218.977 285.422C219.013 285.058 219.14 284.709 219.345 284.406C219.66 283.92 220.074 283.506 220.56 283.191C227.371 278.737 223.974 267.342 214.891 266.059C213.64 265.881 213.733 265.281 211.303 255.126C214.948 260.284 223.415 261.2 229.416 258.47C235.935 272.076 233.02 277.984 225.517 284.418C223.824 285.952 221.866 287.165 219.738 287.998C219.722 287.931 219.699 287.866 219.669 287.803C219.301 287.079 218.908 286.269 218.977 285.435V285.422ZM239.223 279.956C240.067 280.435 241.04 280.637 242.005 280.535L245.467 286.532C242.507 287.415 237.515 286.56 232.57 280.81C232.323 280.49 232.745 279.79 234.393 276.607C235.976 277.741 237.502 279.057 239.227 279.956H239.223ZM234.696 265.451C241.276 269.756 242.815 269.027 242.483 276.559C242.492 276.803 242.434 277.045 242.316 277.26C242.197 277.474 242.022 277.651 241.81 277.773C241.598 277.895 241.357 277.957 241.112 277.952C240.868 277.947 240.629 277.876 240.422 277.745C233.737 274.271 235.142 273.287 234.7 265.451H234.696ZM244.512 270.764C248.091 270.926 248.909 270.914 249.063 271.286C251.57 278.446 249.816 283.195 247.569 285.321L244.107 279.324C244.677 278.538 244.989 277.594 244.998 276.623C245.083 274.676 244.718 272.704 244.516 270.764H244.512ZM230.999 282.333C233.352 284.548 235.081 287.289 241.123 288.747C243.232 289.253 245.038 289.176 246.617 288.512L250.132 294.586C242.062 298.02 230.671 292.561 226.926 286.042L230.999 282.333ZM248.715 287.301C250.08 286.269 251.051 284.742 251.667 282.657C253.424 276.7 251.914 273.829 251.173 270.687L256.437 269.023C260.203 275.502 259.239 288.115 252.23 293.387L248.715 287.301ZM255.728 266.986C246.415 270.262 239.831 269.821 231.307 257.385C236.668 253.55 240.11 245.751 237.478 240.03C245.067 247.217 245.633 247.436 245.172 248.606C241.738 257.11 249.897 265.755 257.17 262.09C257.681 261.823 258.242 261.666 258.818 261.629C259.183 261.601 259.55 261.666 259.883 261.819C260.648 262.184 261.158 262.925 261.608 263.613C261.648 263.669 261.693 263.722 261.742 263.771C259.949 265.198 257.911 266.288 255.728 266.986ZM248.156 248.331C253.449 243.067 264.11 252.004 257.874 258.049C251.829 264.285 242.892 253.623 248.156 248.331ZM261.644 260.033C261.492 259.7 261.426 259.334 261.454 258.968C261.491 258.393 261.649 257.831 261.916 257.32C265.56 250.032 256.947 241.888 248.432 245.322C247.261 245.792 247.043 245.225 239.855 237.629C245.593 240.277 253.372 236.819 257.21 231.474C269.662 239.977 270.087 246.573 266.811 255.895C266.11 258.069 265.021 260.098 263.596 261.884C263.547 261.835 263.494 261.79 263.438 261.75C262.75 261.309 262.009 260.799 261.644 260.033ZM265.289 234.875C273.136 235.316 274.108 233.911 277.582 240.601C277.713 240.808 277.785 241.046 277.79 241.291C277.795 241.536 277.733 241.777 277.611 241.989C277.489 242.201 277.311 242.376 277.097 242.494C276.883 242.613 276.641 242.671 276.396 242.662C268.852 242.994 269.581 241.455 265.277 234.875H265.289ZM280.372 242.184C280.475 241.219 280.272 240.246 279.793 239.402C278.894 237.677 277.591 236.163 276.445 234.571C279.627 232.923 280.328 232.502 280.648 232.749C286.398 237.693 287.252 242.686 286.369 245.646L280.372 242.184ZM285.159 247.748C283.033 249.995 278.275 251.748 271.124 249.242C270.751 249.088 270.763 248.27 270.601 244.691C272.541 244.893 274.513 245.257 276.461 245.176C277.432 245.168 278.376 244.856 279.162 244.286L285.159 247.748ZM270.525 251.348C273.667 252.089 276.538 253.599 282.494 251.842C284.58 251.226 286.106 250.254 287.139 248.89L293.213 252.404C287.949 259.414 275.347 260.378 268.848 256.612L270.525 251.348ZM288.341 246.792C289.006 245.213 289.082 243.407 288.576 241.297C287.119 235.256 284.377 233.527 282.162 231.174L285.888 227.1C292.399 230.846 297.865 242.237 294.432 250.307L288.341 246.792ZM284.256 225.691C277.817 233.199 271.897 236.11 258.304 229.591C261.021 223.59 260.118 215.127 254.959 211.478C265.123 213.908 265.722 213.815 265.892 215.066C267.176 224.157 278.558 227.554 283.025 220.735C283.34 220.249 283.754 219.835 284.239 219.52C284.542 219.315 284.892 219.188 285.256 219.152C286.102 219.083 286.912 219.476 287.645 219.844C287.707 219.874 287.772 219.897 287.839 219.913C287.004 222.041 285.788 223.999 284.252 225.691H284.256ZM268.374 213.325C270.322 206.117 284.025 208.526 281.648 216.88C279.526 225.303 266.455 220.536 268.37 213.325H268.374ZM285.904 216.714C285.609 216.505 285.37 216.227 285.207 215.904C284.951 215.388 284.806 214.824 284.782 214.248C284.316 206.117 272.764 203.367 267.103 210.604C266.325 211.596 265.856 211.215 255.838 208.239C262.13 207.66 267.143 200.78 267.791 194.228C282.834 195.382 286.491 200.865 288.313 210.579C288.796 212.811 288.868 215.112 288.524 217.37C288.457 217.352 288.39 217.339 288.321 217.333C287.495 217.265 286.6 217.196 285.9 216.714H285.904ZM288.706 202.635C288.301 202.687 287.896 201.97 285.981 198.954C287.762 198.144 289.653 197.488 291.297 196.443C292.135 195.951 292.796 195.209 293.188 194.321H300.117C299.396 197.33 296.157 201.209 288.702 202.635H288.706ZM299.837 199.185C301.336 197.609 302.174 196.01 302.384 194.325H309.414C308.353 203.035 297.926 210.166 290.415 210.15L289.224 204.764C292.33 203.829 295.573 203.699 299.837 199.185ZM290.779 212.442C291.184 212.333 291.536 212.239 291.897 212.15C293.865 211.673 295.97 211.43 297.869 210.656C307.126 206.878 311.2 200.618 311.463 194.325H317.735C316.298 207.571 303.287 219.674 290.791 217.301L290.779 212.442ZM311.463 191.896C311.2 185.599 307.114 179.343 297.882 175.549C295.982 174.775 293.877 174.532 291.909 174.055C291.548 173.965 291.208 173.872 290.791 173.763V168.904C303.287 166.531 316.302 178.622 317.735 191.88L311.463 191.896ZM342.898 173.589C335.034 182.793 337.634 183.996 316.662 169.835C325.109 165.138 332.608 172.921 342.898 173.593V173.589ZM294.606 165.867C302.567 158.983 308.628 152.387 317.529 155.501C319.27 156.108 321.368 156.995 321.805 158.578C322.242 160.161 320.845 161.988 319.643 163.385C313.492 170.532 304.94 167.847 294.606 165.867ZM321.655 166.049C327.061 158.064 325.324 164.782 338.877 163.996C343.878 163.709 347.433 162.899 351.166 160.129C339.278 178.1 344.853 169.722 321.655 166.049ZM325.299 157.643C324.21 151.512 342.894 137.995 356.58 149.261C350.365 165.859 327.425 163.498 325.303 157.643H325.299ZM333.876 145.353C321.728 151.451 326.611 156.4 317.938 152.188C336.192 137.408 327.174 132.938 346.453 142.559C341.841 142.029 338.358 143.102 333.88 145.353H333.876ZM311.726 151.403C322.821 128.642 321.153 130.994 332.564 135.035C323.991 140.757 321.388 151.249 311.726 151.403ZM302.579 156.059C310.151 142.417 298.125 134.797 319.784 132.436C309.961 142.717 315.391 148.568 302.579 156.059ZM289.775 165.13L287.345 160.935C287.649 160.631 287.9 160.38 288.155 160.125C289.621 158.728 291.326 157.465 292.577 155.845C298.708 147.953 299.109 140.47 296.193 134.898L301.623 131.76C307.001 143.948 301.781 160.935 289.775 165.13ZM294.978 132.796C291.601 127.475 284.932 124.09 275.039 125.435C273.015 125.71 271.067 126.552 269.123 127.123C268.767 127.228 268.423 127.317 268.01 127.431L265.58 123.236C275.214 114.935 292.537 118.911 300.404 129.662L294.978 132.796ZM279.846 116.68C292.747 109.339 295.079 116.976 308.904 113.594C296.031 131.156 295.444 116.947 279.846 116.68ZM288.451 111.092C293.415 102.799 303.802 105.791 313.046 101.228C310.835 113.129 313.71 112.861 288.451 111.092ZM290.88 105.314C291.569 95.6965 293.423 102.386 304.765 94.9271C308.956 92.1736 311.625 89.6995 313.479 85.4315C312.168 106.941 312.795 96.8951 290.88 105.314ZM289.836 96.2108C285.827 91.4447 295.25 70.4005 312.734 73.3119C315.63 90.7968 294.602 100.22 289.836 96.2108ZM291.119 81.2769C283.66 92.615 290.346 94.4776 280.733 95.166C289.151 73.2391 279.113 73.8789 300.615 72.5709C296.347 74.4215 293.873 77.09 291.119 81.2769ZM274.954 97.5956C273.185 72.3361 272.93 75.2111 284.819 73.0002C280.255 82.2447 283.235 92.6312 274.954 97.5956ZM282.033 98.2435C283.843 97.8993 286.106 97.6159 287.297 98.7699C288.487 99.924 288.167 102.204 287.823 104.034C286.07 113.299 277.323 115.251 267.382 118.705C270.816 108.743 272.768 99.9968 282.02 98.2435H282.033ZM262.811 120.458L258.616 118.028C258.729 117.623 258.818 117.271 258.923 116.915C259.494 114.971 260.336 113.028 260.612 110.999C261.956 101.106 258.587 94.4372 253.25 91.06L256.384 85.6299C267.135 93.4977 271.112 110.825 262.811 120.458ZM251.149 89.8533C245.565 86.9338 238.094 87.3347 230.202 93.4451C228.582 94.6963 227.318 96.4011 225.921 97.8669C225.666 98.1342 225.415 98.3852 225.112 98.6768L220.917 96.2472C225.112 84.241 242.098 79.0215 254.287 84.403L251.149 89.8533ZM220.18 91.4366C218.199 81.1028 215.515 72.5507 222.662 66.3998C224.059 65.185 225.877 63.8204 227.464 64.2375C229.052 64.6545 229.938 66.7723 230.546 68.5135C233.66 77.4179 227.059 83.4798 220.18 91.4407V91.4366ZM216.207 69.3801C202.035 48.3885 203.249 51.0084 212.453 43.1446C213.126 53.438 220.908 60.9373 216.207 69.3841V69.3801ZM215.673 79.6248C207.643 66.2621 195.021 72.8503 203.816 52.8994C207.797 66.582 215.58 64.7841 215.673 79.6289V79.6248ZM217.122 95.2511H212.263C212.154 94.8461 212.061 94.4939 211.972 94.1335C211.494 92.1655 211.251 90.0599 210.477 88.1648C206.703 78.9202 200.443 74.8466 194.151 74.5834V68.3111C207.392 69.7486 219.495 82.759 217.122 95.2551V95.2511ZM209.971 95.6155L204.586 96.806C203.654 93.7123 203.525 90.4688 199.022 86.1928C197.447 84.6945 195.847 83.8563 194.163 83.6458V76.6202C202.857 77.6811 209.987 88.1081 209.971 95.6195V95.6155ZM202.46 97.3405C202.512 97.7454 201.796 98.1504 198.779 100.066C197.969 98.284 197.313 96.393 196.268 94.749C195.777 93.9118 195.035 93.2504 194.147 92.8579V85.9336C197.155 86.6504 201.034 89.8898 202.46 97.3446V97.3405ZM192.936 109.582C189.393 102.564 187.672 102.422 191.745 96.069C191.859 95.8519 192.03 95.67 192.24 95.5431C192.45 95.4163 192.691 95.3492 192.936 95.3492C193.181 95.3492 193.422 95.4163 193.631 95.5431C193.841 95.67 194.012 95.8519 194.126 96.069C198.2 102.406 196.479 102.564 192.936 109.582ZM191.721 74.5834C185.424 74.8466 179.168 78.9324 175.374 88.1688C174.601 90.0639 174.358 92.1695 173.88 94.1375C173.791 94.4979 173.698 94.838 173.588 95.2551H168.729C166.356 82.759 178.447 69.7445 191.705 68.3111L191.721 74.5834ZM170.195 79.6289C170.288 64.7841 178.071 66.582 182.051 52.9035C190.838 72.8463 178.229 66.254 170.199 79.6289H170.195ZM169.66 69.3841C164.959 60.9373 172.742 53.438 173.414 43.1487C182.622 51.0124 183.825 48.3925 169.665 69.3841H169.66ZM163.206 66.4038C170.353 72.5547 167.66 81.1069 165.688 91.4407C158.804 83.4798 152.208 77.4179 155.322 68.5176C155.929 66.7764 156.816 64.6788 158.399 64.2415C159.983 63.8042 161.813 65.2012 163.21 66.4038H163.206ZM164.951 96.2715L160.756 98.7011C160.452 98.3974 160.201 98.1463 159.946 97.8912C158.553 96.4051 157.302 94.7125 155.682 93.4491C147.778 87.3387 140.295 86.9379 134.723 89.8533L131.585 84.4232C143.773 79.0458 160.76 84.2653 164.955 96.2715H164.951ZM132.621 91.0681C127.301 94.4453 123.915 101.114 125.26 111.007C125.535 113.032 126.377 114.979 126.948 116.923C127.054 117.279 127.143 117.623 127.256 118.036L123.061 120.466C114.76 110.833 118.736 93.5099 129.487 85.6421L132.621 91.0681ZM118.51 118.684C108.569 115.23 99.8222 113.279 98.0688 104.014C97.7246 102.204 97.4412 99.9402 98.5952 98.7497C99.7493 97.5592 102.029 97.8791 103.859 98.2233C113.104 99.9969 115.056 108.743 118.51 118.684ZM110.917 97.5956C102.624 92.6312 105.617 82.2447 101.053 73.0002C112.954 75.2111 112.687 72.3361 110.917 97.5956ZM105.139 95.166C95.5258 94.4776 102.211 92.6231 94.7524 81.2769C91.9989 77.09 89.5248 74.4215 85.2568 72.5709C106.767 73.8789 96.7204 73.2512 105.139 95.166ZM96.0361 96.2108C91.27 100.22 70.2258 90.7968 73.1373 73.3119C90.6221 70.4167 100.045 91.4447 96.0361 96.2108ZM81.1063 94.9271C92.4443 102.386 94.303 95.6965 94.9913 105.314C73.0644 96.8951 73.7042 106.933 72.3922 85.4315C74.2468 89.6995 76.9153 92.1736 81.1063 94.9271ZM97.4209 111.092C72.1614 112.861 75.0364 113.117 72.8255 101.228C82.07 105.791 92.4565 102.811 97.4209 111.092ZM106.026 116.68C90.4278 116.947 89.8285 131.164 76.9679 113.594C90.7922 116.984 93.1246 109.339 106.026 116.68ZM120.283 123.236L117.854 127.431C117.449 127.317 117.096 127.228 116.74 127.123C114.796 126.552 112.853 125.71 110.824 125.435C100.932 124.09 94.2625 127.459 90.8854 132.796L85.4552 129.662C93.323 118.911 110.65 114.935 120.283 123.236ZM89.6787 134.898C86.7591 140.482 87.16 147.953 93.2704 155.845C94.5216 157.465 96.2264 158.728 97.6922 160.125C97.9595 160.38 98.2105 160.631 98.5021 160.935L96.0725 165.13C84.0663 160.935 78.8468 143.948 84.2283 131.76L89.6787 134.898ZM91.2619 165.867C80.9281 167.847 72.376 170.532 66.2251 163.385C65.0103 161.988 63.6457 160.169 64.0628 158.582C64.4799 156.995 66.5976 156.108 68.3388 155.501C77.2432 152.387 83.3051 158.987 91.266 165.867H91.2619ZM83.2929 156.059C70.4809 148.568 75.911 142.717 66.0874 132.436C87.7431 134.801 75.7207 142.417 83.2929 156.059ZM74.1455 151.403C64.4839 151.249 61.8802 140.757 53.3078 135.035C64.7188 130.994 63.0505 128.642 74.1455 151.403ZM67.9299 152.188C59.2563 156.4 64.1195 151.451 51.9918 145.353C47.5133 143.102 44.0309 142.029 39.4147 142.559C58.6934 132.938 49.6756 137.408 67.9299 152.188ZM60.5682 157.643C58.4464 163.498 35.5071 165.859 29.2874 149.261C42.974 137.995 61.6575 151.512 60.5682 157.643ZM46.995 163.996C60.548 164.782 58.8108 158.064 64.2166 166.049C41.0182 169.722 46.5941 178.1 34.7053 160.129C38.4388 162.899 41.9941 163.709 46.995 163.996ZM69.2094 169.839C48.2179 184.012 50.8378 182.797 42.974 173.593C53.2633 172.921 60.7626 165.138 69.2094 169.839ZM79.4542 170.374C66.0915 178.403 72.6797 191.025 52.7288 182.23C66.4073 178.25 64.6094 170.467 79.4542 170.374ZM79.4542 215.847C64.6094 215.754 66.4073 207.971 52.7288 203.991C72.6716 195.208 66.0793 207.818 79.4542 215.847ZM91.266 220.354C83.3051 227.238 77.2433 233.834 68.3429 230.72C66.6017 230.113 64.5042 229.226 64.0668 227.643C63.6295 226.06 65.0265 224.233 66.2291 222.836C72.38 215.689 80.9322 218.374 91.266 220.354ZM69.2094 216.382C60.7626 221.083 53.2633 213.3 42.974 212.628C50.8378 203.424 48.2179 202.221 69.2094 216.382ZM64.2166 220.172C58.8108 228.153 60.548 221.439 46.995 222.225C41.9941 222.513 38.4388 223.322 34.7053 226.092C46.5941 208.121 41.0182 216.499 64.2166 220.172ZM60.5723 228.578C61.6615 234.709 42.9781 248.226 29.2914 236.96C35.5071 220.362 58.4464 222.723 60.5682 228.578H60.5723ZM51.9959 240.868C64.1235 234.77 59.2603 229.822 67.9339 234.033C49.6797 248.813 58.6975 253.279 39.4187 243.662C44.0309 244.193 47.5133 243.119 51.9918 240.868H51.9959ZM74.1455 234.818C63.0505 257.579 64.7188 255.227 53.3078 251.186C61.8802 245.464 64.4839 234.972 74.1455 234.818ZM83.2929 230.162C75.7207 243.804 87.7471 251.425 66.0874 253.785C75.911 243.504 70.4809 237.653 83.2929 230.162ZM96.0968 221.091L98.5264 225.286C98.2227 225.59 97.9716 225.841 97.7165 226.096C96.2304 227.493 94.5378 228.744 93.2744 230.364C87.164 238.268 86.7632 245.751 89.6787 251.323L84.2485 254.462C78.8711 242.273 84.0906 225.286 96.0968 221.091ZM90.8934 253.445C94.2706 258.766 100.94 262.151 110.832 260.807C112.857 260.531 114.805 259.689 116.748 259.118C117.105 259.013 117.449 258.924 117.862 258.81L120.291 263.006C110.658 271.307 93.3352 267.33 85.4674 256.579L90.8934 253.445ZM106.026 269.561C93.1246 276.903 90.7922 269.266 76.9679 272.647C89.8406 255.065 90.4278 269.274 106.026 269.541V269.561ZM97.4209 275.149C92.4565 283.442 82.07 280.45 72.8255 285.014C75.0364 273.092 72.1614 273.36 97.4209 275.129V275.149ZM94.9913 280.928C94.303 290.545 92.4484 283.855 81.1063 291.314C76.9153 294.068 74.2468 296.542 72.3922 300.81C73.7042 279.28 73.0765 289.326 94.9913 280.908V280.928ZM96.0361 290.031C100.045 294.797 90.6221 315.841 73.1373 312.929C70.242 295.424 91.27 286.002 96.0361 290.01V290.031ZM94.7524 304.96C102.211 293.622 95.5258 291.764 105.139 291.075C96.7204 313.002 106.759 312.362 85.2568 313.67C89.5248 311.8 91.9989 309.131 94.7524 304.94V304.96ZM110.917 288.646C112.687 313.905 112.942 311.03 101.053 313.241C105.617 303.976 102.636 293.59 110.917 288.625V288.646ZM103.851 287.978C102.041 288.322 99.7776 288.605 98.5871 287.451C97.3966 286.297 97.7165 284.017 98.0607 282.187C99.8141 272.922 108.561 270.971 118.502 267.516C115.056 277.478 113.104 286.245 103.851 287.978ZM123.073 265.763L127.268 268.193C127.155 268.598 127.066 268.95 126.961 269.306C126.39 271.25 125.547 273.194 125.272 275.222C123.928 285.111 127.297 291.784 132.634 295.161L129.499 300.591C118.736 292.723 114.76 275.396 123.061 265.763H123.073ZM134.723 296.368C140.307 299.287 147.778 298.886 155.67 292.776C157.29 291.525 158.553 289.82 159.95 288.354C160.205 288.087 160.456 287.836 160.76 287.544L164.955 289.974C160.76 301.98 143.773 307.2 131.585 301.818L134.723 296.368ZM165.692 294.784C167.672 305.118 170.357 313.67 163.21 319.821C161.813 321.036 159.995 322.401 158.407 321.984C156.82 321.567 155.933 319.449 155.326 317.708C152.212 308.803 158.812 302.741 165.692 294.78V294.784ZM169.665 316.841C183.837 337.833 182.622 335.213 173.418 343.076C172.746 332.783 164.963 325.284 169.665 316.837V316.841ZM170.199 306.596C178.229 319.959 190.85 313.371 182.055 333.322C178.075 319.639 170.292 321.437 170.199 306.592V306.596ZM168.749 290.97H173.609C173.718 291.375 173.811 291.727 173.9 292.088C174.378 294.056 174.621 296.161 175.394 298.056C179.168 307.301 185.428 311.374 191.721 311.638V317.91C178.48 316.473 166.376 303.462 168.749 290.966V290.97ZM175.9 290.606L181.286 289.415C182.217 292.509 182.347 295.752 186.85 300.028C188.425 301.527 190.024 302.365 191.709 302.575V309.605C183.015 308.54 175.884 298.113 175.9 290.602V290.606ZM183.412 288.881C183.359 288.476 184.076 288.071 187.093 286.151C187.903 287.937 188.559 289.828 189.603 291.472C190.095 292.309 190.837 292.971 191.725 293.363V300.292C188.716 299.571 184.837 296.331 183.412 288.877V288.881ZM192.936 276.64C196.479 283.657 198.2 283.799 194.126 290.152C194.012 290.369 193.841 290.551 193.631 290.678C193.422 290.805 193.181 290.872 192.936 290.872C192.691 290.872 192.45 290.805 192.24 290.678C192.03 290.551 191.859 290.369 191.745 290.152C187.692 283.815 189.393 283.657 192.936 276.64ZM194.151 311.638C200.447 311.374 206.703 307.289 210.498 298.052C211.271 296.157 211.514 294.052 211.992 292.084C212.081 291.723 212.174 291.383 212.283 290.966H217.143C219.515 303.462 207.424 316.477 194.167 317.91L194.151 311.638ZM215.677 306.592C215.584 321.437 207.801 319.639 203.82 333.318C195.033 313.375 207.643 319.967 215.673 306.592H215.677ZM216.211 316.837C220.912 325.284 213.13 332.783 212.458 343.072C203.249 335.209 202.047 337.829 216.207 316.837H216.211ZM222.666 319.817C215.519 313.666 218.212 305.114 220.184 294.78C227.067 302.741 233.664 308.803 230.55 317.704C229.942 319.445 229.056 321.542 227.472 321.98C225.889 322.417 224.059 321.02 222.662 319.817H222.666ZM220.921 289.95L225.116 287.52C225.419 287.824 225.67 288.075 225.925 288.33C227.322 289.796 228.586 291.5 230.206 292.752C238.094 298.882 245.577 299.283 251.149 296.368L254.287 301.798C242.098 307.175 225.112 301.956 220.917 289.95H220.921ZM253.27 295.153C258.591 291.776 261.976 285.103 260.632 275.214C260.357 273.19 259.514 271.242 258.944 269.298C258.838 268.942 258.749 268.598 258.636 268.185L262.831 265.755C271.132 275.388 267.155 292.711 256.405 300.579L253.27 295.153ZM267.382 267.537C277.323 270.991 286.07 272.943 287.823 282.207C288.167 284.017 288.451 286.281 287.297 287.471C286.143 288.662 283.863 288.342 282.033 287.998C272.768 286.245 270.816 277.478 267.362 267.537H267.382ZM274.975 288.625C283.268 293.59 280.275 303.976 284.839 313.221C272.918 311.01 273.185 313.885 274.954 288.625H274.975ZM280.753 291.055C290.366 291.743 283.681 293.598 291.139 304.94C293.893 309.131 296.367 311.8 300.635 313.65C279.105 312.342 289.151 312.97 280.733 291.055H280.753ZM289.856 290.01C294.622 286.002 315.666 295.424 312.755 312.909C295.25 315.804 285.827 294.776 289.836 290.01H289.856ZM304.786 291.294C293.448 283.835 291.589 290.525 290.901 280.908C312.828 289.326 312.188 279.288 313.5 300.79C311.625 296.522 308.956 294.047 304.765 291.294H304.786ZM288.471 275.129C313.731 273.36 310.856 273.104 313.066 284.993C303.802 280.43 293.415 283.41 288.451 275.129H288.471ZM279.866 269.541C295.464 269.274 296.063 255.057 308.924 272.627C295.079 269.237 292.747 276.883 279.846 269.541H279.866ZM265.609 262.985L268.038 258.79C268.443 258.904 268.795 258.993 269.152 259.098C271.095 259.669 273.039 260.511 275.068 260.787C284.96 262.131 291.629 258.762 295.007 253.425L300.437 256.559C292.549 267.31 275.222 271.286 265.588 262.985H265.609ZM296.193 251.323C299.113 245.739 298.712 238.268 292.601 230.376C291.35 228.757 289.645 227.493 288.179 226.096C287.912 225.841 287.661 225.59 287.37 225.286L289.799 221.091C301.805 225.286 307.025 242.273 301.643 254.462L296.193 251.323ZM294.61 220.354C304.944 218.374 313.496 215.689 319.647 222.836C320.861 224.233 322.226 226.052 321.809 227.639C321.392 229.226 319.274 230.113 317.533 230.72C308.628 233.834 302.567 227.234 294.606 220.354H294.61ZM302.583 230.162C315.395 237.665 309.949 243.524 319.788 253.785C298.129 251.421 310.151 243.804 302.579 230.162H302.583ZM311.726 234.818C321.388 234.972 323.991 245.464 332.564 251.186C321.153 255.227 322.821 257.579 311.726 234.818ZM317.942 234.033C326.615 229.822 321.752 234.77 333.88 240.868C338.358 243.119 341.841 244.193 346.457 243.662C327.178 253.279 336.196 248.813 317.942 234.033ZM325.303 228.578C327.425 222.723 350.365 220.362 356.584 236.96C342.898 248.226 324.214 234.709 325.303 228.578ZM338.877 222.225C325.324 221.439 327.061 228.153 321.655 220.172C344.853 216.499 339.278 208.121 351.166 226.092C347.433 223.322 343.878 222.513 338.877 222.225ZM316.662 216.382C337.654 202.209 335.034 203.424 342.898 212.628C332.608 213.3 325.109 221.083 316.662 216.382ZM306.418 215.847C319.78 207.818 313.192 195.196 333.143 203.991C319.464 207.971 321.262 215.754 306.418 215.847ZM306.418 170.374C321.262 170.467 319.464 178.25 333.143 182.23C313.2 191.013 319.792 178.403 306.418 170.374ZM363.083 146.293C361.869 146.564 360.654 146.863 359.48 147.196C359.049 147.312 358.599 147.34 358.157 147.278C357.715 147.216 357.29 147.065 356.908 146.835C332.916 132.42 323.595 124.317 304.607 133.602L303.753 130.751C322.036 118.668 326.85 124.58 363.083 146.293ZM338.346 107.755C337.199 108.419 335.856 108.663 334.548 108.444C330.385 107.739 321.218 106.2 321.056 106.115L321.315 98.527L344.497 103.9C344.612 103.926 344.725 103.962 344.833 104.01L338.346 107.755ZM346.04 106.111C346.025 106.229 346.001 106.346 345.967 106.46L339.035 129.225L332.337 125.653C332.337 125.471 335.577 116.745 337.067 112.805C337.529 111.562 338.412 110.519 339.561 109.857L346.04 106.111ZM335.026 112.469C329.92 127.965 331.406 125.07 324.417 122.79C325.32 120.498 326.036 118.935 326.381 117.842C326.477 117.542 326.68 117.289 326.952 117.129C327.636 116.745 329.539 115.643 335.034 112.469H335.026ZM347.02 134.25C339.472 129.674 339.901 132.314 348.372 106.075C348.709 105.038 349.417 104.163 350.361 103.617L356.811 99.8916C355.617 105.844 349.178 127.54 347.028 134.25H347.02ZM355.596 97.8062L349.146 101.527C348.202 102.073 347.09 102.249 346.024 102.021C319.063 96.2391 321.137 97.9317 320.95 89.1042C327.842 90.5863 349.85 95.8585 355.604 97.794L355.596 97.8062ZM333.815 110.379C328.32 113.554 326.413 114.651 325.741 115.044C325.467 115.2 325.145 115.249 324.838 115.182C323.712 114.947 322.003 114.777 319.574 114.408C321.1 107.205 317.849 107.043 333.823 110.367L333.815 110.379ZM324.554 117.125C321.453 123.94 324.328 122.353 314.05 123.199C319.926 114.696 317.112 116.392 324.562 117.113L324.554 117.125ZM318.545 69.1817C319.234 111.416 321.943 118.539 302.348 128.342L300.295 126.167C317.828 114.364 315.468 102.244 314.982 74.2554C314.973 73.8093 315.055 73.3659 315.222 72.9524C315.39 72.5389 315.64 72.1639 315.958 71.8502C316.851 70.9728 317.716 70.0793 318.553 69.1695L318.545 69.1817ZM316.869 67.5052C315.959 68.3448 315.07 69.2046 314.2 70.0846C313.887 70.402 313.512 70.6522 313.098 70.82C312.684 70.9878 312.241 71.0696 311.795 71.0605C283.806 70.5746 271.707 68.226 259.883 85.7473L257.725 83.6822C267.52 64.0957 274.643 66.8047 316.877 67.4931L316.869 67.5052ZM277.591 51.5105C277.371 50.2029 277.615 48.8598 278.279 47.7123L282.025 41.2334C282.072 41.3416 282.108 41.4541 282.134 41.5695L287.519 64.7477L279.931 65.0068C279.846 64.8287 278.307 55.661 277.603 51.4984L277.591 51.5105ZM271.638 66.4929C271.27 64.0633 271.1 62.3505 270.865 61.2288C270.798 60.9212 270.847 60.5995 271.002 60.3258C271.407 59.6536 272.492 57.7464 275.663 52.2515C279.004 68.1977 278.842 64.9461 271.65 66.4686L271.638 66.4929ZM276.189 46.4853C275.527 47.6348 274.485 48.517 273.242 48.9797C269.285 50.4536 260.575 53.7052 260.393 53.7093L256.822 47.0117L279.591 40.0712C279.705 40.0373 279.821 40.0129 279.939 39.9983L276.189 46.4853ZM273.578 51.0124C270.403 56.5073 269.302 58.4105 268.917 59.0867C268.758 59.3582 268.504 59.5615 268.204 59.6577C267.111 60.0181 265.548 60.7186 263.256 61.6216C260.964 54.6244 258.081 56.1186 273.578 51.0124ZM268.933 61.4839C269.654 68.9347 271.363 66.1204 262.859 71.9878C263.705 61.7107 262.118 64.5857 268.933 61.4839ZM288.252 30.442C290.188 36.196 295.46 58.204 296.954 65.0878C288.127 64.9015 289.819 66.9748 284.037 40.0145C283.809 38.9486 283.985 37.836 284.531 36.8925L288.252 30.442ZM286.155 29.2272L282.425 35.6777C281.88 36.6212 281.004 37.3294 279.967 37.6659C253.728 46.1371 256.368 46.5744 251.792 39.0184C258.506 36.8682 280.202 30.4339 286.155 29.2272ZM238.851 26.5668C239.183 25.352 239.483 24.1737 239.754 22.9629C261.466 59.1961 267.374 64.0107 255.311 82.2933L252.461 81.4389C261.746 62.4517 253.643 53.1302 239.227 29.1381C238.995 28.757 238.841 28.3328 238.776 27.8909C238.712 27.449 238.737 26.9987 238.851 26.5668ZM228.404 60.7429C222.548 58.6211 220.188 35.6818 236.786 29.4621C248.051 43.1487 234.534 61.8322 228.404 60.7429ZM237.478 22.3515C237.11 23.5339 236.77 24.7203 236.458 25.9189C236.345 26.3509 236.145 26.7553 235.871 27.1076C235.597 27.4598 235.253 27.7525 234.862 27.9679C210.38 41.5411 198.702 45.558 197.252 66.6427L194.341 65.9544C193.017 44.0962 200.544 42.8814 237.478 22.3515ZM194.151 4.57504C198.706 8.596 214.276 25.0159 219.013 30.2314C211.275 34.4832 213.778 35.4307 195.288 14.9737C194.557 14.1641 194.152 13.1125 194.151 12.0217V4.57504ZM194.151 17.0104C194.246 17.0824 194.336 17.1623 194.418 17.2494L210.66 34.6614L204.221 38.6742C204.067 38.5811 198.147 31.4138 195.459 28.146C194.611 27.1208 194.148 25.8318 194.151 24.5017V17.0104ZM197.795 44.0962C196.26 42.1688 195.256 40.7799 194.491 39.9214C194.278 39.6893 194.161 39.3857 194.163 39.071C194.163 38.2936 194.163 36.0948 194.163 29.7577C205.015 41.9015 203.249 39.1642 197.795 44.0962ZM192.936 53.2477C188.522 43.9343 188.587 47.2142 192.936 41.12C197.285 47.2142 197.35 43.9302 192.936 53.2477ZM191.721 29.7293C191.721 36.0746 191.721 38.2733 191.721 39.0427C191.723 39.3573 191.605 39.6609 191.393 39.8931C190.628 40.7515 189.624 42.1404 188.089 44.0679C182.622 39.1642 180.857 41.9015 191.721 29.7293ZM181.65 38.6378L175.212 34.6249L191.454 17.2129C191.536 17.1259 191.625 17.046 191.721 16.974V24.4652C191.723 25.7953 191.261 27.0844 190.413 28.1096C187.728 31.3936 181.808 38.5608 181.654 38.654L181.65 38.6378ZM191.721 4.57504V12.0217C191.72 13.1125 191.314 14.1641 190.583 14.9737C172.094 35.4307 174.597 34.4832 166.858 30.2314C171.6 25.0159 187.17 8.596 191.721 4.57504ZM191.547 65.9625L188.635 66.6508C187.186 45.5661 175.508 41.5452 151.026 27.976C150.634 27.7606 150.291 27.4679 150.017 27.1157C149.743 26.7634 149.543 26.359 149.43 25.927C149.118 24.7122 148.778 23.542 148.41 22.3596C185.327 42.8814 192.855 44.0962 191.547 65.9625ZM149.086 29.4621C165.688 35.6818 163.323 58.617 157.468 60.7429C151.337 61.8322 137.821 43.1487 149.086 29.4621ZM146.118 22.9629C146.389 24.1777 146.689 25.3723 147.021 26.5668C147.137 26.9976 147.165 27.4474 147.103 27.8892C147.041 28.3311 146.891 28.7559 146.66 29.1381C132.245 53.1302 124.142 62.4517 133.427 81.4389L130.577 82.2933C118.493 64.0107 124.405 59.1961 146.118 22.9629ZM122.632 61.6216C120.34 60.7186 118.777 60.0019 117.684 59.6577C117.384 59.5615 117.13 59.3582 116.971 59.0867C116.586 58.4105 115.485 56.5073 112.31 51.0124C127.795 56.1186 124.908 54.6244 122.616 61.6216H122.632ZM123.037 71.9878C114.554 66.1204 116.25 68.9347 116.963 61.4839C123.754 64.5857 122.166 61.7107 123.004 71.9878H123.037ZM107.613 47.692C108.277 48.8395 108.521 50.1826 108.301 51.4903C107.597 55.6529 106.058 64.8206 105.973 64.9825L98.3523 64.7477L103.726 41.5654C103.751 41.4501 103.788 41.3375 103.835 41.2293L107.613 47.692ZM105.969 39.9983C106.087 40.0129 106.203 40.0373 106.317 40.0712L129.082 47.0117L125.511 53.7093C125.329 53.7093 116.602 50.4698 112.662 48.9797C111.419 48.517 110.377 47.6348 109.715 46.4853L105.969 39.9983ZM110.225 52.2232C113.399 57.7181 114.497 59.6253 114.89 60.2975C115.045 60.5712 115.094 60.8928 115.027 61.2005C114.792 62.3262 114.622 64.035 114.254 66.4646C107.03 64.9461 106.868 68.1977 110.192 52.2232H110.225ZM134.116 39.0184C129.54 46.5663 132.18 46.1371 105.941 37.6659C104.904 37.3294 104.028 36.6212 103.483 35.6777L99.7574 29.2272C105.669 30.4339 127.366 36.8682 134.075 39.0184H134.116ZM97.672 30.442L101.393 36.8925C101.939 37.836 102.115 38.9486 101.887 40.0145C96.1049 66.9748 97.7975 64.9015 88.97 65.0878C90.4116 58.204 95.6838 36.196 97.6193 30.442H97.672ZM128.147 83.6822L125.973 85.7352C114.169 68.2017 102.049 70.5625 74.0605 71.0484C73.6143 71.0575 73.171 70.9756 72.7575 70.8078C72.344 70.6401 71.9689 70.3899 71.6552 70.0725C70.786 69.1898 69.8965 68.33 68.9867 67.4931C111.229 66.8047 118.352 64.0957 128.147 83.6822ZM67.3184 69.1695C68.158 70.082 69.0178 70.9715 69.8978 71.838C70.2152 72.1517 70.4654 72.5268 70.6332 72.9403C70.8009 73.3538 70.8828 73.7971 70.8737 74.2433C70.3878 102.232 68.0392 114.352 85.5646 126.155L83.5075 128.322C63.9211 118.526 66.63 111.404 67.3184 69.1695ZM71.8131 123.179C61.536 122.341 64.411 123.928 61.3093 117.105C68.76 116.392 65.9457 114.696 71.8131 123.179ZM46.3025 109.857C47.4509 110.52 48.3328 111.562 48.7969 112.805C50.2709 116.761 53.5224 125.471 53.5265 125.653L46.829 129.225L39.8965 106.455C39.8626 106.342 39.8382 106.225 39.8237 106.107L46.3025 109.857ZM41.0385 104.01C41.1467 103.962 41.2592 103.926 41.3745 103.9L64.573 98.527L64.8322 106.115C64.6702 106.2 55.5188 107.735 51.3399 108.444C50.0323 108.663 48.6892 108.419 47.5416 107.755L41.0385 104.01ZM50.8378 112.469C56.3327 115.643 58.2358 116.745 58.9121 117.129C59.1836 117.289 59.3868 117.542 59.483 117.842C59.8434 118.935 60.5439 120.498 61.4469 122.79C54.4497 125.082 55.9439 127.965 50.8378 112.469ZM66.2939 114.396C63.8644 114.765 62.1515 114.935 61.0299 115.17C60.7222 115.237 60.4005 115.188 60.1269 115.032C59.4547 114.627 57.5475 113.542 52.0526 110.367C68.023 107.043 64.7714 107.205 66.2939 114.396ZM64.9131 89.0921C64.7269 97.9196 66.8001 96.2269 39.8399 102.009C38.7739 102.237 37.6615 102.061 36.7179 101.515L30.2673 97.794C36.0214 95.8585 58.0293 90.5863 64.9131 89.0921ZM29.0525 99.8916L35.5031 103.617C36.4465 104.163 37.1547 105.038 37.4913 106.075C45.9624 132.314 46.3997 129.674 38.8437 134.25C36.6936 127.54 30.2552 105.844 29.0525 99.8916ZM82.0984 130.735L81.2642 133.586C62.277 124.301 52.9555 132.403 28.9634 146.819C28.5812 147.049 28.1564 147.2 27.7146 147.262C27.2727 147.324 26.8229 147.296 26.3921 147.179C25.1773 146.847 23.999 146.548 22.7883 146.276C59.0214 124.58 63.836 118.668 82.1186 130.751L82.0984 130.735ZM22.1768 148.568C23.3592 148.937 24.5457 149.277 25.7442 149.589C26.1762 149.702 26.5806 149.901 26.9329 150.176C27.2852 150.45 27.5779 150.793 27.7932 151.184C41.3664 175.666 45.3834 187.344 66.4681 188.794L65.7797 191.705C43.9216 193.03 42.7068 185.502 22.1768 148.568ZM27.9633 190.576C26.9381 191.423 25.649 191.886 24.3189 191.884H16.8277C16.8997 191.788 16.9796 191.699 17.0666 191.616L34.4786 175.375L38.4914 181.813C38.3862 181.983 31.2189 187.903 27.9633 190.592V190.576ZM43.9216 188.251C41.99 189.786 40.6011 190.79 39.7427 191.556C39.5105 191.768 39.2069 191.885 38.8923 191.884H29.5789C41.7268 181.031 38.9895 182.797 43.9216 188.251ZM24.3432 194.325C25.6733 194.323 26.9624 194.786 27.9876 195.633C31.227 198.322 38.4105 204.242 38.5157 204.396L34.5029 210.834L17.0909 194.593C17.0039 194.51 16.9239 194.421 16.852 194.325H24.3432ZM29.5708 194.325H38.8842C39.1988 194.324 39.5024 194.441 39.7346 194.653C40.593 195.419 41.9819 196.423 43.9135 197.958C38.9895 203.424 41.7268 205.19 29.5546 194.325H29.5708ZM40.9615 193.111C47.0355 188.762 43.7717 188.697 53.0892 193.111C43.7555 197.524 47.0395 197.46 40.9453 193.111H40.9615ZM30.0729 167.037C34.3247 174.775 35.2722 172.273 14.8152 190.762C14.0056 191.493 12.954 191.898 11.8632 191.9H4.40038C8.42133 187.344 24.8412 171.775 30.0567 167.037H30.0729ZM4.40038 194.325H11.847C12.9378 194.327 13.9894 194.732 14.799 195.463C35.2561 213.952 34.3085 211.45 30.0567 219.188C24.8412 214.446 8.42133 198.877 4.40038 194.325ZM65.7797 194.504L66.4681 197.415C45.3834 198.865 41.3624 210.543 27.7932 235.025C27.5779 235.416 27.2852 235.759 26.9329 236.033C26.5806 236.308 26.1762 236.507 25.7442 236.62C24.5295 236.932 23.3592 237.272 22.1768 237.641C42.7068 200.719 43.9216 193.192 65.7878 194.499L65.7797 194.504ZM22.7883 239.929C24.003 239.657 25.1976 239.358 26.3921 239.026C26.8229 238.909 27.2727 238.881 27.7146 238.943C28.1564 239.005 28.5812 239.156 28.9634 239.386C52.9555 253.801 62.277 261.904 81.2642 252.619L82.1186 255.486C63.836 267.553 59.0214 261.641 22.7883 239.929ZM47.5254 278.466C48.673 277.802 50.0161 277.558 51.3237 277.777C55.4864 278.482 64.654 280.021 64.8159 280.106L64.573 287.694L41.3907 282.321C41.2754 282.295 41.1629 282.259 41.0546 282.211L47.5254 278.466ZM39.8318 280.11C39.8463 279.992 39.8707 279.875 39.9047 279.762L46.8452 256.996L53.5427 260.568C53.5427 260.75 50.3033 269.476 48.8131 273.416C48.349 274.659 47.4671 275.701 46.3187 276.364L39.8318 280.11ZM50.8459 273.752C55.952 258.256 54.4659 261.151 61.455 263.431C60.552 265.723 59.8353 267.286 59.4911 268.379C59.3949 268.679 59.1917 268.932 58.9202 269.092C58.2358 269.476 56.3327 270.578 50.8378 273.752H50.8459ZM38.8518 251.971C46.3997 256.547 45.9705 253.907 37.4994 280.146C37.1628 281.183 36.4546 282.058 35.5112 282.604L29.0606 286.33C30.2552 280.377 36.6936 258.681 38.8437 251.971H38.8518ZM30.2754 288.415L36.7259 284.694C37.6696 284.148 38.782 283.972 39.848 284.2C66.8082 289.982 64.735 288.289 64.9212 297.117C58.0293 295.635 36.0214 290.363 30.2673 288.427L30.2754 288.415ZM52.0566 275.862C57.5515 272.687 59.4587 271.59 60.1309 271.197C60.4046 271.042 60.7262 270.992 61.0339 271.06C62.1596 271.294 63.8684 271.465 66.298 271.833C64.7714 279.016 68.023 279.178 52.0485 275.854L52.0566 275.862ZM61.3173 269.116C64.4191 262.301 61.5441 263.888 71.8212 263.042C65.9457 271.525 68.76 269.829 61.3093 269.108L61.3173 269.116ZM67.3265 317.06C66.6381 274.825 63.9291 267.703 83.5237 257.899L85.5808 260.074C68.0432 271.878 70.404 283.997 70.8899 311.986C70.899 312.432 70.8171 312.875 70.6494 313.289C70.4816 313.702 70.2314 314.077 69.914 314.391C69.0205 315.255 68.1553 316.142 67.3184 317.052L67.3265 317.06ZM69.0029 318.736C69.9154 317.897 70.8049 317.037 71.6714 316.157C71.9851 315.839 72.3602 315.589 72.7737 315.421C73.1872 315.254 73.6305 315.172 74.0767 315.181C102.065 315.667 114.185 318.015 125.989 300.494L128.163 302.547C118.352 322.125 111.229 319.416 68.9948 318.728L69.0029 318.736ZM108.281 334.731C108.5 336.038 108.257 337.382 107.593 338.529L103.847 345.008C103.8 344.9 103.763 344.787 103.738 344.672L98.3523 321.473L105.941 321.214C106.026 321.392 107.564 330.56 108.269 334.723L108.281 334.731ZM114.234 319.748C114.602 322.178 114.772 323.891 115.007 325.013C115.074 325.32 115.025 325.642 114.869 325.915C114.464 326.588 113.379 328.495 110.205 333.99C106.868 318.023 107.03 321.275 114.221 319.752L114.234 319.748ZM109.682 339.736C110.344 338.586 111.387 337.704 112.63 337.241C116.586 335.767 125.296 332.516 125.479 332.512L129.05 339.209L106.281 346.15C106.167 346.184 106.05 346.208 105.933 346.223L109.682 339.736ZM112.294 335.209C115.469 329.714 116.57 327.811 116.955 327.134C117.114 326.863 117.368 326.66 117.667 326.563C118.761 326.203 120.324 325.502 122.616 324.599C124.908 331.597 127.795 330.102 112.294 335.209ZM116.939 324.737C116.218 317.286 114.509 320.101 123.013 314.233C122.166 324.51 123.754 321.635 116.939 324.737ZM97.6193 355.779C95.6838 350.025 90.4116 328.017 88.9174 321.133C97.7449 321.32 96.0523 319.246 101.835 346.207C102.063 347.272 101.887 348.385 101.341 349.329L97.6193 355.779ZM99.7169 356.994L103.442 350.543C103.988 349.6 104.863 348.892 105.9 348.555C132.14 340.084 129.499 339.647 134.075 347.203C127.366 349.353 105.669 355.787 99.7169 356.994ZM147.021 359.654C146.689 360.869 146.389 362.047 146.118 363.258C124.405 327.025 118.493 322.21 130.577 303.928L133.443 304.782C124.158 323.769 132.261 333.091 146.677 357.083C146.904 357.466 147.052 357.892 147.111 358.334C147.17 358.775 147.139 359.225 147.021 359.654ZM157.468 325.478C163.323 327.6 165.684 350.539 149.086 356.759C137.821 343.072 151.337 324.389 157.468 325.478ZM148.394 363.87C148.762 362.687 149.102 361.501 149.414 360.302C149.527 359.87 149.727 359.466 150.001 359.114C150.275 358.761 150.618 358.469 151.009 358.253C175.491 344.68 187.17 340.663 188.619 319.578L191.531 320.267C192.855 342.125 185.327 343.34 148.394 363.87ZM191.721 381.646C187.166 377.625 171.596 361.205 166.858 355.99C174.597 351.738 172.094 350.79 190.583 371.247C191.314 372.057 191.72 373.109 191.721 374.199V381.646ZM191.721 369.211C191.625 369.139 191.536 369.059 191.454 368.972L175.212 351.58L181.65 347.567C181.804 347.66 187.724 354.828 190.413 358.095C191.261 359.121 191.723 360.41 191.721 361.74V369.211ZM188.077 342.145C189.611 344.073 190.616 345.461 191.381 346.32C191.593 346.552 191.71 346.856 191.709 347.17C191.709 347.948 191.709 350.147 191.709 356.484C180.857 344.32 182.622 347.057 188.077 342.145ZM192.936 332.973C197.35 342.287 197.285 339.007 192.936 345.121C188.587 339.007 188.522 342.291 192.936 332.973ZM194.151 356.492C194.151 350.147 194.151 347.948 194.151 347.178C194.149 346.864 194.266 346.56 194.479 346.328C195.244 345.47 196.248 344.081 197.783 342.153C203.249 347.057 205.015 344.32 194.151 356.492ZM204.221 347.583L210.66 351.596L194.418 368.988C194.336 369.075 194.246 369.155 194.151 369.227V361.736C194.148 360.406 194.611 359.116 195.459 358.091C198.143 354.828 204.063 347.66 204.217 347.567L204.221 347.583ZM194.151 381.646V374.199C194.152 373.109 194.557 372.057 195.288 371.247C213.778 350.79 211.275 351.738 219.013 355.99C214.272 361.205 198.702 377.625 194.151 381.646ZM194.325 320.259L197.236 319.57C198.686 340.655 210.364 344.676 234.846 358.245C235.237 358.46 235.58 358.753 235.855 359.105C236.129 359.458 236.329 359.862 236.442 360.294C236.753 361.509 237.093 362.679 237.462 363.862C200.544 343.34 193.017 342.125 194.325 320.259ZM236.786 356.751C220.184 350.531 222.548 327.596 228.404 325.47C234.534 324.389 248.051 343.072 236.786 356.759V356.751ZM239.754 363.25C239.483 362.035 239.183 360.82 238.851 359.646C238.735 359.215 238.707 358.766 238.769 358.324C238.831 357.882 238.981 357.457 239.211 357.075C253.627 333.083 261.729 323.761 252.444 304.774L255.311 303.92C267.374 322.21 261.466 327.025 239.754 363.258V363.25ZM263.24 324.591C265.532 325.494 267.095 326.211 268.188 326.555C268.488 326.651 268.741 326.855 268.901 327.126C269.306 327.802 270.387 329.706 273.561 335.201C258.081 330.103 260.964 331.597 263.256 324.599L263.24 324.591ZM262.835 314.225C271.318 320.093 269.622 317.278 268.909 324.729C262.118 321.635 263.705 324.51 262.867 314.233L262.835 314.225ZM278.259 338.521C277.595 337.373 277.351 336.03 277.57 334.723C278.275 330.56 279.814 321.392 279.899 321.23L287.487 321.49L282.114 344.672C282.088 344.787 282.052 344.9 282.004 345.008L278.259 338.521ZM279.903 346.215C279.785 346.2 279.668 346.176 279.554 346.142L256.822 339.209L260.393 332.512C260.575 332.512 269.302 335.751 273.242 337.241C274.485 337.704 275.527 338.586 276.189 339.736L279.903 346.215ZM275.643 333.99C272.472 328.495 271.375 326.588 270.982 325.915C270.826 325.642 270.777 325.32 270.844 325.013C271.079 323.887 271.249 322.178 271.618 319.748C278.842 321.275 279.004 318.023 275.675 333.998L275.643 333.99ZM251.752 347.195C256.328 339.647 253.688 340.076 279.927 348.547C280.964 348.884 281.839 349.592 282.385 350.535L286.11 356.986C280.202 355.787 258.506 349.353 251.796 347.203L251.752 347.195ZM288.196 355.771L284.474 349.32C283.928 348.377 283.752 347.264 283.98 346.198C289.763 319.238 288.07 321.311 296.898 321.125C295.46 328.017 290.188 350.025 288.252 355.779L288.196 355.771ZM257.725 302.539L259.899 300.486C271.703 318.019 283.822 315.659 311.811 315.173C312.257 315.164 312.701 315.245 313.114 315.413C313.528 315.581 313.903 315.831 314.216 316.149C315.086 317.031 315.975 317.891 316.885 318.728C274.643 319.416 267.52 322.125 257.725 302.539ZM318.561 317.052C317.722 316.142 316.862 315.252 315.982 314.383C315.665 314.069 315.414 313.694 315.247 313.281C315.079 312.867 314.997 312.424 315.006 311.978C315.492 283.989 317.841 271.89 300.319 260.066L302.372 257.891C321.951 267.695 319.242 274.817 318.553 317.052H318.561ZM314.059 263.042C324.336 263.88 321.461 262.293 324.562 269.116C317.112 269.829 319.926 271.525 314.059 263.042ZM339.569 276.364C338.42 275.702 337.537 274.66 337.075 273.416C335.601 269.46 332.349 260.75 332.345 260.568L339.043 256.996L345.975 279.766C346.009 279.879 346.033 279.996 346.048 280.114L339.569 276.364ZM344.833 282.211C344.725 282.259 344.612 282.295 344.497 282.321L321.299 287.694L321.04 280.106C321.202 280.021 330.353 278.486 334.532 277.777C335.839 277.558 337.183 277.802 338.33 278.466L344.833 282.211ZM335.034 273.752C329.539 270.578 327.636 269.476 326.96 269.092C326.688 268.932 326.485 268.679 326.389 268.379C326.028 267.286 325.328 265.723 324.425 263.431C331.422 261.139 329.928 258.256 335.034 273.752ZM319.578 271.825C322.007 271.456 323.72 271.286 324.842 271.052C325.15 270.984 325.471 271.033 325.745 271.189C326.417 271.594 328.324 272.679 333.819 275.854C317.849 279.178 321.1 279.017 319.578 271.825ZM320.959 297.129C321.145 288.302 319.072 289.994 346.032 284.212C347.098 283.984 348.21 284.16 349.154 284.706L355.604 288.427C349.85 290.363 327.842 295.635 320.959 297.129ZM356.819 286.33L350.369 282.6C349.425 282.054 348.717 281.179 348.38 280.142C339.909 253.903 339.472 256.543 347.028 251.967C349.178 258.681 355.617 280.377 356.819 286.33ZM303.753 255.47L304.607 252.603C323.595 261.888 332.916 253.785 356.908 239.37C357.29 239.14 357.715 238.989 358.157 238.927C358.599 238.865 359.049 238.893 359.48 239.009C360.694 239.341 361.873 239.641 363.083 239.912C326.85 261.641 322.036 267.553 303.753 255.47ZM363.683 237.62C362.5 237.252 361.314 236.912 360.115 236.6C359.683 236.487 359.279 236.287 358.927 236.013C358.574 235.739 358.282 235.396 358.066 235.005C344.493 210.523 340.476 198.844 319.391 197.395L320.08 194.483C341.95 193.192 343.165 200.719 363.695 237.653L363.683 237.62ZM355.803 219.168C351.551 211.43 350.603 213.932 371.061 195.443C371.87 194.712 372.922 194.307 374.013 194.305H381.459C377.45 198.877 361.03 214.446 355.815 219.184L355.803 219.168Z"/>
</svg>